STARTFONT 2.1
COMMENT
COMMENT Converted from OpenType font "BrandonGrotesque-Bold.ttf" by "otf2bdf 3.0".
COMMENT
FONT -FreeType-Brandon Grotesque Bold-Medium-R-Normal--23-220-75-75-P-104-ISO10646-1
SIZE 22 75 75
FONTBOUNDINGBOX 25 35 -3 -9
STARTPROPERTIES 19
FOUNDRY "FreeType"
FAMILY_NAME "Brandon Grotesque Bold"
WEIGHT_NAME "Medium"
SLANT "R"
SETWIDTH_NAME "Normal"
ADD_STYLE_NAME ""
PIXEL_SIZE 23
POINT_SIZE 220
RESOLUTION_X 75
RESOLUTION_Y 75
SPACING "P"
AVERAGE_WIDTH 104
CHARSET_REGISTRY "ISO10646"
CHARSET_ENCODING "1"
FONT_ASCENT 24
FONT_DESCENT 8
COPYRIGHT "Copyright (c) 2009 by Hannes von Doehren. All rights reserved."
_OTF_FONTFILE "BrandonGrotesque-Bold.ttf"
_OTF_PSNAME "BrandonGrotesque-Bold"
ENDPROPERTIES
CHARS 413
STARTCHAR 0020
ENCODING 32
SWIDTH 218 0
DWIDTH 5 0
BBX 0 0 0 0
BITMAP
ENDCHAR
STARTCHAR 0021
ENCODING 33
SWIDTH 305 0
DWIDTH 7 0
BBX 3 17 2 0
BITMAP
E0
E0
E0
E0
E0
E0
E0
40
40
40
00
00
00
40
E0
E0
40
ENDCHAR
STARTCHAR 0022
ENCODING 34
SWIDTH 349 0
DWIDTH 8 0
BBX 7 5 1 12
BITMAP
EE
CC
CC
CC
CC
ENDCHAR
STARTCHAR 0023
ENCODING 35
SWIDTH 523 0
DWIDTH 12 0
BBX 11 17 1 0
BITMAP
08C0
18C0
1880
1080
1080
1080
7FE0
1180
1180
3100
2100
FFC0
2100
2100
2100
2300
2300
ENDCHAR
STARTCHAR 0024
ENCODING 36
SWIDTH 523 0
DWIDTH 12 0
BBX 10 22 1 -3
BITMAP
0400
0E00
3F80
7FC0
E5C0
E400
E400
F400
7C00
7E00
1F80
0780
07C0
05C0
05C0
65C0
FFC0
7F80
3F00
0400
0400
0400
ENDCHAR
STARTCHAR 0025
ENCODING 37
SWIDTH 698 0
DWIDTH 16 0
BBX 14 17 1 0
BITMAP
7860
FC60
FCC0
FCC0
FD80
7980
0300
0300
0600
0600
0C70
0CF8
18DC
19DC
30FC
30F8
6070
ENDCHAR
STARTCHAR 0026
ENCODING 38
SWIDTH 698 0
DWIDTH 16 0
BBX 14 17 2 0
BITMAP
1F00
3F80
7FC0
71C0
71C0
71C0
3B80
1F00
3F18
7F38
E3B8
E1F0
E0F0
E0F8
FFFC
7F9C
1F08
ENDCHAR
STARTCHAR 0027
ENCODING 39
SWIDTH 174 0
DWIDTH 4 0
BBX 3 5 1 12
BITMAP
E0
C0
C0
C0
C0
ENDCHAR
STARTCHAR 0028
ENCODING 40
SWIDTH 349 0
DWIDTH 8 0
BBX 6 19 1 -2
BITMAP
1C
3C
78
70
60
E0
E0
E0
E0
E0
E0
E0
E0
E0
60
70
78
3C
1C
ENDCHAR
STARTCHAR 0029
ENCODING 41
SWIDTH 349 0
DWIDTH 8 0
BBX 7 19 0 -2
BITMAP
E0
F0
78
1C
1C
0C
0C
0C
0C
0E
0C
0C
0C
0C
1C
1C
78
F0
E0
ENDCHAR
STARTCHAR 002A
ENCODING 42
SWIDTH 349 0
DWIDTH 8 0
BBX 8 8 0 9
BITMAP
18
5A
FF
3C
3C
FF
5A
18
ENDCHAR
STARTCHAR 002B
ENCODING 43
SWIDTH 523 0
DWIDTH 12 0
BBX 10 11 1 3
BITMAP
1C00
1C00
1C00
1C00
FFC0
FFC0
FFC0
1C00
1C00
1C00
1C00
ENDCHAR
STARTCHAR 002C
ENCODING 44
SWIDTH 261 0
DWIDTH 6 0
BBX 5 9 1 -5
BITMAP
60
F0
F0
78
10
30
30
60
40
ENDCHAR
STARTCHAR 002D
ENCODING 45
SWIDTH 349 0
DWIDTH 8 0
BBX 6 3 1 5
BITMAP
FC
FC
FC
ENDCHAR
STARTCHAR 002E
ENCODING 46
SWIDTH 261 0
DWIDTH 6 0
BBX 4 4 1 0
BITMAP
60
F0
F0
60
ENDCHAR
STARTCHAR 002F
ENCODING 47
SWIDTH 349 0
DWIDTH 8 0
BBX 7 17 1 0
BITMAP
0E
0C
0C
1C
1C
18
38
38
30
30
70
70
60
E0
E0
C0
C0
ENDCHAR
STARTCHAR 0030
ENCODING 48
SWIDTH 610 0
DWIDTH 14 0
BBX 12 17 1 0
BITMAP
1F00
3F80
7FC0
70E0
E0E0
E060
E060
E060
E070
E060
E060
E060
E0E0
70E0
7FC0
3F80
1F00
ENDCHAR
STARTCHAR 0031
ENCODING 49
SWIDTH 349 0
DWIDTH 8 0
BBX 6 17 0 0
BITMAP
1C
3C
7C
FC
FC
1C
1C
1C
1C
1C
1C
1C
1C
1C
1C
1C
1C
ENDCHAR
STARTCHAR 0032
ENCODING 50
SWIDTH 523 0
DWIDTH 12 0
BBX 10 17 1 0
BITMAP
1F00
3F80
7FC0
61C0
01C0
01C0
01C0
0380
0380
0700
0E00
1E00
1C00
3800
7FC0
FFC0
FFC0
ENDCHAR
STARTCHAR 0033
ENCODING 51
SWIDTH 480 0
DWIDTH 11 0
BBX 10 17 0 0
BITMAP
1E00
7F80
7F80
6180
01C0
0180
0380
3F00
3F00
1F80
01C0
01C0
01C0
61C0
FFC0
7F80
1F00
ENDCHAR
STARTCHAR 0034
ENCODING 52
SWIDTH 654 0
DWIDTH 15 0
BBX 13 17 1 0
BITMAP
00C0
01C0
03C0
03C0
07C0
0FC0
1DC0
1DC0
39C0
71C0
E1C0
FFF8
FFF8
FFF8
01C0
01C0
01C0
ENDCHAR
STARTCHAR 0035
ENCODING 53
SWIDTH 523 0
DWIDTH 12 0
BBX 10 17 2 0
BITMAP
FF00
FF00
FF00
E000
E000
E000
FE00
FF00
FF80
0380
0180
01C0
0180
C380
FF80
FF00
3E00
ENDCHAR
STARTCHAR 0036
ENCODING 54
SWIDTH 523 0
DWIDTH 12 0
BBX 11 17 1 1
BITMAP
0700
0F80
1E00
3C00
7000
7000
6F00
FF80
FFC0
E1C0
E0C0
E0E0
E0C0
61C0
7FC0
3F80
1E00
ENDCHAR
STARTCHAR 0037
ENCODING 55
SWIDTH 480 0
DWIDTH 11 0
BBX 10 17 1 0
BITMAP
FFC0
FFC0
FF80
0380
0700
0700
0700
0E00
0E00
1C00
1C00
3800
3800
3800
7000
7000
6000
ENDCHAR
STARTCHAR 0038
ENCODING 56
SWIDTH 567 0
DWIDTH 13 0
BBX 11 17 1 0
BITMAP
1F00
3F80
7FC0
61C0
E1C0
61C0
71C0
3F80
3F00
7F80
E1C0
E0C0
E0E0
E1C0
FFC0
7F80
1F00
ENDCHAR
STARTCHAR 0039
ENCODING 57
SWIDTH 523 0
DWIDTH 12 0
BBX 10 17 1 -1
BITMAP
1E00
3F80
7F80
E1C0
E0C0
E0C0
E0C0
E1C0
7FC0
7FC0
1FC0
01C0
0380
0700
1F00
3E00
3800
ENDCHAR
STARTCHAR 003A
ENCODING 58
SWIDTH 218 0
DWIDTH 5 0
BBX 3 10 1 0
BITMAP
40
E0
E0
40
00
00
00
E0
E0
E0
ENDCHAR
STARTCHAR 003B
ENCODING 59
SWIDTH 261 0
DWIDTH 6 0
BBX 4 14 1 -4
BITMAP
40
E0
E0
40
00
00
00
E0
F0
70
10
30
20
40
ENDCHAR
STARTCHAR 003C
ENCODING 60
SWIDTH 436 0
DWIDTH 10 0
BBX 9 11 0 0
BITMAP
0180
0380
0F00
1E00
7800
F000
7C00
1E00
0780
0380
0080
ENDCHAR
STARTCHAR 003D
ENCODING 61
SWIDTH 436 0
DWIDTH 10 0
BBX 8 8 1 3
BITMAP
FF
FF
FF
00
00
FF
FF
FF
ENDCHAR
STARTCHAR 003E
ENCODING 62
SWIDTH 436 0
DWIDTH 10 0
BBX 9 11 1 0
BITMAP
C000
E000
7800
3C00
0F00
0780
1F00
3C00
F000
E000
8000
ENDCHAR
STARTCHAR 003F
ENCODING 63
SWIDTH 436 0
DWIDTH 10 0
BBX 8 17 1 0
BITMAP
3E
7F
FF
43
03
07
0E
1C
18
38
00
00
00
18
3C
3C
18
ENDCHAR
STARTCHAR 0040
ENCODING 64
SWIDTH 1003 0
DWIDTH 23 0
BBX 21 23 1 -6
BITMAP
00FE00
07FF80
0FFFC0
1E01E0
3800F0
300070
700030
60F638
E1FE38
E3FE38
E30E38
E70E38
E30E38
E30E30
E3FFF0
E1FFE0
70F3C0
700000
380000
1C0000
1F0000
070000
030000
ENDCHAR
STARTCHAR 0041
ENCODING 65
SWIDTH 654 0
DWIDTH 15 0
BBX 15 17 0 0
BITMAP
0100
0180
0380
03C0
07C0
07C0
0EE0
0EE0
1E70
1C70
1C38
3FF8
3FFC
7FFC
701C
F00E
E00E
ENDCHAR
STARTCHAR 0042
ENCODING 66
SWIDTH 610 0
DWIDTH 14 0
BBX 11 17 2 0
BITMAP
FF00
FF80
FFC0
E1C0
E1C0
E1C0
E3C0
FF80
FF80
FFC0
E1E0
E0E0
E0E0
E1E0
FFC0
FFC0
FF00
ENDCHAR
STARTCHAR 0043
ENCODING 67
SWIDTH 698 0
DWIDTH 16 0
BBX 14 17 1 0
BITMAP
07E0
1FF8
3FFC
7818
7000
F000
E000
E000
E000
E000
E000
F000
7000
7818
3FFC
1FF8
07E0
ENDCHAR
STARTCHAR 0044
ENCODING 68
SWIDTH 741 0
DWIDTH 17 0
BBX 14 17 2 0
BITMAP
FF80
FFE0
FFF0
E0F0
E038
E038
E01C
E01C
E01C
E01C
E01C
E038
E038
E0F0
FFF0
FFC0
FF80
ENDCHAR
STARTCHAR 0045
ENCODING 69
SWIDTH 567 0
DWIDTH 13 0
BBX 10 17 2 0
BITMAP
FFC0
FFC0
FFC0
E000
E000
E000
E000
FF80
FF80
FF80
E000
E000
E000
E000
FFC0
FFC0
FFC0
ENDCHAR
STARTCHAR 0046
ENCODING 70
SWIDTH 567 0
DWIDTH 13 0
BBX 10 17 2 0
BITMAP
FFC0
FFC0
FFC0
E000
E000
E000
E000
FF80
FF80
FF80
E000
E000
E000
E000
E000
E000
E000
ENDCHAR
STARTCHAR 0047
ENCODING 71
SWIDTH 698 0
DWIDTH 16 0
BBX 14 17 1 0
BITMAP
07E0
1FF8
3FFC
7818
7000
F000
E000
E000
E07C
E07C
E07C
F01C
701C
7C1C
3FFC
1FFC
07E0
ENDCHAR
STARTCHAR 0048
ENCODING 72
SWIDTH 741 0
DWIDTH 17 0
BBX 13 17 2 0
BITMAP
E038
E038
E038
E038
E038
E038
E038
FFF8
FFF8
FFF8
E038
E038
E038
E038
E038
E038
E038
ENDCHAR
STARTCHAR 0049
ENCODING 73
SWIDTH 305 0
DWIDTH 7 0
BBX 3 17 2 0
BITMAP
E0
E0
E0
E0
E0
E0
E0
E0
E0
E0
E0
E0
E0
E0
E0
E0
E0
ENDCHAR
STARTCHAR 004A
ENCODING 74
SWIDTH 392 0
DWIDTH 9 0
BBX 8 17 0 0
BITMAP
07
07
07
07
07
07
07
07
07
07
07
07
06
46
FE
FC
78
ENDCHAR
STARTCHAR 004B
ENCODING 75
SWIDTH 654 0
DWIDTH 15 0
BBX 12 17 2 0
BITMAP
E070
E0E0
E1E0
E3C0
E780
EF00
EE00
FC00
FC00
FE00
EF00
E780
E380
E3C0
E1E0
E0F0
E070
ENDCHAR
STARTCHAR 004C
ENCODING 76
SWIDTH 523 0
DWIDTH 12 0
BBX 10 17 2 0
BITMAP
E000
E000
E000
E000
E000
E000
E000
E000
E000
E000
E000
E000
E000
E000
FF80
FFC0
FFC0
ENDCHAR
STARTCHAR 004D
ENCODING 77
SWIDTH 872 0
DWIDTH 20 0
BBX 18 17 1 0
BITMAP
100200
100600
380700
380700
3C0F00
3C0F00
3E1F00
3E1F00
773B80
773B80
73F380
73F380
71E380
61E180
E1E1C0
E0C1C0
E0C1C0
ENDCHAR
STARTCHAR 004E
ENCODING 78
SWIDTH 785 0
DWIDTH 18 0
BBX 14 17 2 0
BITMAP
801C
C01C
E01C
F01C
F81C
FC1C
FE1C
EF1C
E79C
E3DC
E1FC
E0FC
E0FC
E07C
E03C
E01C
E00C
ENDCHAR
STARTCHAR 004F
ENCODING 79
SWIDTH 785 0
DWIDTH 18 0
BBX 16 17 1 0
BITMAP
07E0
1FF8
3FFC
781C
700E
E006
E007
E007
E007
E007
E007
E007
700E
781C
3FFC
1FF8
07E0
ENDCHAR
STARTCHAR 0050
ENCODING 80
SWIDTH 567 0
DWIDTH 13 0
BBX 11 17 2 0
BITMAP
FF00
FF80
FFC0
E1C0
E0C0
E0E0
E0C0
E1C0
FF80
FF80
FC00
E000
E000
E000
E000
E000
E000
ENDCHAR
STARTCHAR 0051
ENCODING 81
SWIDTH 785 0
DWIDTH 18 0
BBX 16 22 1 -5
BITMAP
07E0
1FF8
3FFC
781C
700E
E006
E007
E007
E007
E007
E007
E007
700E
781E
3FFC
1FF8
07F0
0078
0038
001C
001E
000C
ENDCHAR
STARTCHAR 0052
ENCODING 82
SWIDTH 654 0
DWIDTH 15 0
BBX 12 17 2 0
BITMAP
FF80
FFE0
FFE0
E070
E070
E070
E0F0
FFE0
FFC0
FF80
E3C0
E3C0
E1C0
E1E0
E0E0
E0F0
E070
ENDCHAR
STARTCHAR 0053
ENCODING 83
SWIDTH 523 0
DWIDTH 12 0
BBX 10 17 1 0
BITMAP
3E00
7F80
FF80
E180
E000
E000
F000
7C00
3F00
0F80
03C0
01C0
01C0
C1C0
FF80
FF80
3E00
ENDCHAR
STARTCHAR 0054
ENCODING 84
SWIDTH 567 0
DWIDTH 13 0
BBX 11 17 1 0
BITMAP
FFE0
FFE0
FFE0
0E00
0E00
0E00
0E00
0E00
0E00
0E00
0E00
0E00
0E00
0E00
0E00
0E00
0E00
ENDCHAR
STARTCHAR 0055
ENCODING 85
SWIDTH 698 0
DWIDTH 16 0
BBX 13 17 2 0
BITMAP
E038
E038
E038
E038
E038
E038
E038
E038
E038
E038
E038
E030
E030
7070
7FE0
3FC0
0F80
ENDCHAR
STARTCHAR 0056
ENCODING 86
SWIDTH 654 0
DWIDTH 15 0
BBX 15 17 0 0
BITMAP
E00E
F00E
701C
701C
383C
3838
1C78
1C70
1E70
0EE0
0EE0
07C0
07C0
03C0
0380
0180
0100
ENDCHAR
STARTCHAR 0057
ENCODING 87
SWIDTH 916 0
DWIDTH 21 0
BBX 19 17 1 0
BITMAP
E040E0
E0C0E0
E0E1C0
E1E1C0
71F1C0
71F1C0
73B380
33BB80
3B3B80
3F1B80
3F1F00
1E1F00
1E0F00
1C0E00
1C0600
0C0600
080600
ENDCHAR
STARTCHAR 0058
ENCODING 88
SWIDTH 610 0
DWIDTH 14 0
BBX 13 17 1 0
BITMAP
E078
F0F0
78F0
39E0
3DC0
1FC0
1F80
0F80
0F00
0F80
1F80
1FC0
39E0
78E0
70F0
F070
E078
ENDCHAR
STARTCHAR 0059
ENCODING 89
SWIDTH 567 0
DWIDTH 13 0
BBX 13 17 0 0
BITMAP
E038
F070
70F0
38E0
39C0
1FC0
0F80
0F00
0700
0700
0700
0700
0700
0700
0700
0700
0700
ENDCHAR
STARTCHAR 005A
ENCODING 90
SWIDTH 567 0
DWIDTH 13 0
BBX 11 17 1 0
BITMAP
7FE0
7FE0
7FC0
01C0
0380
0380
0700
0700
0E00
0E00
1E00
3C00
3C00
7800
7FE0
FFE0
FFE0
ENDCHAR
STARTCHAR 005B
ENCODING 91
SWIDTH 392 0
DWIDTH 9 0
BBX 6 24 2 -7
BITMAP
FC
FC
FC
E0
E0
E0
E0
E0
E0
E0
E0
E0
E0
E0
E0
E0
E0
E0
E0
E0
E0
FC
FC
FC
ENDCHAR
STARTCHAR 005C
ENCODING 92
SWIDTH 349 0
DWIDTH 8 0
BBX 8 17 0 0
BITMAP
E0
60
70
70
30
30
38
38
18
1C
1C
1C
0C
0E
0E
06
07
ENDCHAR
STARTCHAR 005D
ENCODING 93
SWIDTH 349 0
DWIDTH 8 0
BBX 7 24 0 -7
BITMAP
FE
FE
7E
0E
0E
0E
0E
0E
0E
0E
0E
0E
0E
0E
0E
0E
0E
0E
0E
0E
0E
7E
FE
7E
ENDCHAR
STARTCHAR 005E
ENCODING 94
SWIDTH 523 0
DWIDTH 12 0
BBX 10 8 1 9
BITMAP
0C00
0C00
1E00
3F00
3300
7380
E1C0
C0C0
ENDCHAR
STARTCHAR 005F
ENCODING 95
SWIDTH 480 0
DWIDTH 11 0
BBX 9 2 1 -2
BITMAP
FF80
FF80
ENDCHAR
STARTCHAR 0060
ENCODING 96
SWIDTH 305 0
DWIDTH 7 0
BBX 5 4 1 13
BITMAP
40
E0
78
18
ENDCHAR
STARTCHAR 0061
ENCODING 97
SWIDTH 436 0
DWIDTH 10 0
BBX 8 10 1 0
BITMAP
7E
7F
7F
3F
7F
E7
E7
FF
FF
7B
ENDCHAR
STARTCHAR 0062
ENCODING 98
SWIDTH 480 0
DWIDTH 11 0
BBX 9 17 1 0
BITMAP
E000
E000
E000
E000
E000
E000
E000
FE00
FF00
FF80
E380
E180
E180
E380
FF80
FF00
DE00
ENDCHAR
STARTCHAR 0063
ENCODING 99
SWIDTH 436 0
DWIDTH 10 0
BBX 8 10 1 0
BITMAP
1E
7F
7F
E2
E0
E0
E2
7F
7F
1E
ENDCHAR
STARTCHAR 0064
ENCODING 100
SWIDTH 480 0
DWIDTH 11 0
BBX 9 17 1 0
BITMAP
0380
0380
0380
0380
0380
0380
0380
3F80
7F80
7F80
E380
E380
E380
E380
7F80
7F80
3D80
ENDCHAR
STARTCHAR 0065
ENCODING 101
SWIDTH 480 0
DWIDTH 11 0
BBX 9 10 1 0
BITMAP
1E00
7F00
7F80
E380
FF80
FF80
E000
7F00
7F00
3E00
ENDCHAR
STARTCHAR 0066
ENCODING 102
SWIDTH 392 0
DWIDTH 9 0
BBX 8 17 1 0
BITMAP
1E
3F
3F
30
70
70
70
FE
FE
FE
70
70
70
70
70
70
70
ENDCHAR
STARTCHAR 0067
ENCODING 103
SWIDTH 523 0
DWIDTH 12 0
BBX 10 17 1 -7
BITMAP
1FC0
3FC0
7F80
7380
7380
7F80
7F00
FE00
E000
FE00
7F80
3FC0
61C0
E1C0
7FC0
7F80
3F00
ENDCHAR
STARTCHAR 0068
ENCODING 104
SWIDTH 480 0
DWIDTH 11 0
BBX 9 17 1 0
BITMAP
E000
E000
E000
E000
E000
E000
E000
FE00
FF00
FF80
E380
E380
E380
E380
E380
E380
E380
ENDCHAR
STARTCHAR 0069
ENCODING 105
SWIDTH 218 0
DWIDTH 5 0
BBX 3 17 1 0
BITMAP
E0
E0
E0
00
00
00
00
E0
E0
E0
E0
E0
E0
E0
E0
E0
E0
ENDCHAR
STARTCHAR 006A
ENCODING 106
SWIDTH 218 0
DWIDTH 5 0
BBX 7 24 -3 -7
BITMAP
0E
0E
0E
00
00
00
00
0E
0E
0E
0E
0E
0E
0E
0E
0E
0E
0E
0E
0E
0E
FE
FC
78
ENDCHAR
STARTCHAR 006B
ENCODING 107
SWIDTH 480 0
DWIDTH 11 0
BBX 9 17 1 0
BITMAP
E000
E000
E000
E000
E000
E000
E000
E780
E700
EE00
FC00
F800
FC00
FE00
EF00
E780
E380
ENDCHAR
STARTCHAR 006C
ENCODING 108
SWIDTH 218 0
DWIDTH 5 0
BBX 3 17 1 0
BITMAP
E0
E0
E0
E0
E0
E0
E0
E0
E0
E0
E0
E0
E0
E0
E0
E0
E0
ENDCHAR
STARTCHAR 006D
ENCODING 109
SWIDTH 741 0
DWIDTH 17 0
BBX 15 10 1 0
BITMAP
DE78
FFFC
FFFE
E38E
E38E
E38E
E38E
E38E
E38E
E38E
ENDCHAR
STARTCHAR 006E
ENCODING 110
SWIDTH 480 0
DWIDTH 11 0
BBX 9 10 1 0
BITMAP
DE00
FF00
FF80
E380
E380
E380
E380
E380
E380
E380
ENDCHAR
STARTCHAR 006F
ENCODING 111
SWIDTH 480 0
DWIDTH 11 0
BBX 9 10 1 0
BITMAP
1E00
7F00
7F80
E380
E180
E180
E380
7F80
7F00
1E00
ENDCHAR
STARTCHAR 0070
ENCODING 112
SWIDTH 480 0
DWIDTH 11 0
BBX 9 17 1 -7
BITMAP
DE00
FF00
FF80
E380
E180
E180
E380
FF80
FF00
FE00
E000
E000
E000
E000
E000
E000
E000
ENDCHAR
STARTCHAR 0071
ENCODING 113
SWIDTH 480 0
DWIDTH 11 0
BBX 9 17 1 -7
BITMAP
3D80
7F80
7F80
E380
E380
E380
E380
7F80
7F80
1F80
0380
0380
0380
0380
0380
0380
0380
ENDCHAR
STARTCHAR 0072
ENCODING 114
SWIDTH 305 0
DWIDTH 7 0
BBX 6 10 1 0
BITMAP
DC
FC
F8
E0
E0
E0
E0
E0
E0
E0
ENDCHAR
STARTCHAR 0073
ENCODING 115
SWIDTH 392 0
DWIDTH 9 0
BBX 7 10 1 0
BITMAP
7C
FC
FC
E0
78
3C
0E
7E
FE
7C
ENDCHAR
STARTCHAR 0074
ENCODING 116
SWIDTH 349 0
DWIDTH 8 0
BBX 7 13 1 0
BITMAP
70
70
70
FC
FC
FC
70
70
70
70
3C
3E
3C
ENDCHAR
STARTCHAR 0075
ENCODING 117
SWIDTH 480 0
DWIDTH 11 0
BBX 9 10 1 0
BITMAP
E380
E380
E380
E380
E380
E380
E380
FF80
7F80
3D80
ENDCHAR
STARTCHAR 0076
ENCODING 118
SWIDTH 436 0
DWIDTH 10 0
BBX 9 10 0 0
BITMAP
E180
6380
7380
7700
3F00
3E00
1E00
1C00
0C00
0800
ENDCHAR
STARTCHAR 0077
ENCODING 119
SWIDTH 610 0
DWIDTH 14 0
BBX 14 10 0 0
BITMAP
E31C
6318
7798
77B8
3FF0
3CF0
3CF0
1870
1860
1020
ENDCHAR
STARTCHAR 0078
ENCODING 120
SWIDTH 436 0
DWIDTH 10 0
BBX 10 10 0 0
BITMAP
71C0
7380
3F00
1F00
1E00
1E00
3F00
3F80
7380
F1C0
ENDCHAR
STARTCHAR 0079
ENCODING 121
SWIDTH 480 0
DWIDTH 11 0
BBX 10 17 0 -7
BITMAP
E0C0
71C0
71C0
7380
3B80
3F00
1F00
1E00
0E00
0E00
1C00
1C00
3800
3800
7000
7000
7000
ENDCHAR
STARTCHAR 007A
ENCODING 122
SWIDTH 392 0
DWIDTH 9 0
BBX 7 10 1 0
BITMAP
FE
FE
FC
1C
38
38
70
7E
FE
FE
ENDCHAR
STARTCHAR 007B
ENCODING 123
SWIDTH 436 0
DWIDTH 10 0
BBX 8 24 1 -7
BITMAP
07
0F
1E
3C
38
38
38
38
38
30
70
E0
E0
70
30
38
38
38
38
38
3C
1E
0F
07
ENDCHAR
STARTCHAR 007C
ENCODING 124
SWIDTH 174 0
DWIDTH 4 0
BBX 1 26 2 -7
BITMAP
80
80
80
80
80
80
80
80
80
80
80
80
80
80
80
80
80
80
80
80
80
80
80
80
80
80
ENDCHAR
STARTCHAR 007D
ENCODING 125
SWIDTH 436 0
DWIDTH 10 0
BBX 9 24 0 -7
BITMAP
E000
F800
3C00
1C00
0C00
0C00
0E00
0E00
0E00
0E00
0E00
0780
0780
0E00
0E00
0E00
0E00
0E00
0C00
0C00
1C00
7C00
F800
E000
ENDCHAR
STARTCHAR 007E
ENCODING 126
SWIDTH 523 0
DWIDTH 12 0
BBX 11 5 1 4
BITMAP
1000
7840
FFE0
CFC0
8380
ENDCHAR
STARTCHAR 00A0
ENCODING 160
SWIDTH 218 0
DWIDTH 5 0
BBX 0 0 0 0
BITMAP
ENDCHAR
STARTCHAR 00A1
ENCODING 161
SWIDTH 261 0
DWIDTH 6 0
BBX 4 17 1 -7
BITMAP
60
F0
F0
60
00
00
00
60
60
60
60
F0
F0
F0
F0
F0
F0
ENDCHAR
STARTCHAR 00A2
ENCODING 162
SWIDTH 436 0
DWIDTH 10 0
BBX 8 13 1 -3
BITMAP
02
1E
7F
7F
EC
E8
E8
E8
7F
7F
1E
10
30
ENDCHAR
STARTCHAR 00A3
ENCODING 163
SWIDTH 480 0
DWIDTH 11 0
BBX 9 17 1 0
BITMAP
1F00
3F80
7F80
7100
7000
7000
7000
7000
7000
FE00
3800
3800
3800
3000
3F80
7F80
7F80
ENDCHAR
STARTCHAR 00A4
ENCODING 164
SWIDTH 480 0
DWIDTH 11 0
BBX 8 8 1 5
BITMAP
EB
7F
7E
66
66
7F
FF
43
ENDCHAR
STARTCHAR 00A5
ENCODING 165
SWIDTH 610 0
DWIDTH 14 0
BBX 13 17 1 0
BITMAP
E038
F070
70F0
38E0
39C0
1FC0
1F80
0F00
0700
0700
3FC0
0700
0700
3FC0
0700
0700
0700
ENDCHAR
STARTCHAR 00A6
ENCODING 166
SWIDTH 305 0
DWIDTH 7 0
BBX 1 26 3 -7
BITMAP
80
80
80
80
80
80
80
80
80
00
00
00
00
00
00
00
00
80
80
80
80
80
80
80
80
80
ENDCHAR
STARTCHAR 00A7
ENCODING 167
SWIDTH 523 0
DWIDTH 12 0
BBX 10 24 1 -7
BITMAP
3E00
7F80
FF80
E100
E000
E000
F000
7E00
7F00
EF80
E3C0
E1C0
E1C0
79C0
7F80
3F00
0F80
03C0
01C0
41C0
63C0
FF80
7F00
0C00
ENDCHAR
STARTCHAR 00A8
ENCODING 168
SWIDTH 392 0
DWIDTH 9 0
BBX 7 3 1 13
BITMAP
42
C6
C6
ENDCHAR
STARTCHAR 00A9
ENCODING 169
SWIDTH 829 0
DWIDTH 19 0
BBX 17 18 1 0
BITMAP
03E000
0FF800
1C1C00
300E00
608700
63E300
C7E180
CE0180
CE0180
CE0180
CE0180
C7E180
67E300
61C300
300600
1C1C00
0FF800
03E000
ENDCHAR
STARTCHAR 00AA
ENCODING 170
SWIDTH 349 0
DWIDTH 8 0
BBX 6 7 1 9
BITMAP
78
7C
3C
FC
CC
FC
7C
ENDCHAR
STARTCHAR 00AB
ENCODING 171
SWIDTH 480 0
DWIDTH 11 0
BBX 9 8 1 1
BITMAP
3180
7300
E700
EE00
EE00
E700
7300
3380
ENDCHAR
STARTCHAR 00AC
ENCODING 172
SWIDTH 523 0
DWIDTH 12 0
BBX 11 7 0 3
BITMAP
FFE0
FFE0
7FE0
00E0
00E0
00E0
00C0
ENDCHAR
STARTCHAR 00AD
ENCODING 173
SWIDTH 349 0
DWIDTH 8 0
BBX 6 3 1 5
BITMAP
FC
FC
FC
ENDCHAR
STARTCHAR 00AE
ENCODING 174
SWIDTH 829 0
DWIDTH 19 0
BBX 17 18 1 0
BITMAP
03E000
0FF800
1C1C00
300E00
67C700
67E300
C7F180
C77180
C77180
C7F180
C7C180
C74180
676300
666300
300600
1C1C00
0FF800
03E000
ENDCHAR
STARTCHAR 00AF
ENCODING 175
SWIDTH 392 0
DWIDTH 9 0
BBX 7 2 1 14
BITMAP
FE
FE
ENDCHAR
STARTCHAR 00B0
ENCODING 176
SWIDTH 349 0
DWIDTH 8 0
BBX 7 7 1 11
BITMAP
38
7C
FC
EE
FC
7C
38
ENDCHAR
STARTCHAR 00B1
ENCODING 177
SWIDTH 567 0
DWIDTH 13 0
BBX 10 14 1 1
BITMAP
1C00
1C00
1C00
1C00
FFC0
FFC0
FFC0
1C00
1C00
0000
0000
FFC0
FFC0
FFC0
ENDCHAR
STARTCHAR 00B2
ENCODING 178
SWIDTH 305 0
DWIDTH 7 0
BBX 5 6 1 12
BITMAP
70
F8
18
30
78
F8
ENDCHAR
STARTCHAR 00B3
ENCODING 179
SWIDTH 305 0
DWIDTH 7 0
BBX 5 6 1 12
BITMAP
70
F8
70
18
F8
F0
ENDCHAR
STARTCHAR 00B4
ENCODING 180
SWIDTH 305 0
DWIDTH 7 0
BBX 5 4 1 13
BITMAP
08
38
F0
C0
ENDCHAR
STARTCHAR 00B5
ENCODING 181
SWIDTH 523 0
DWIDTH 12 0
BBX 9 17 1 -7
BITMAP
E380
E380
E380
E380
E380
E380
E380
FF80
FF80
FD80
E000
E000
E000
E000
E000
E000
E000
ENDCHAR
STARTCHAR 00B6
ENCODING 182
SWIDTH 741 0
DWIDTH 17 0
BBX 16 24 1 -7
BITMAP
1FFE
7FFF
7FFE
FF9C
FF9C
FF9C
FF9C
FF9C
7F9C
3F9C
039C
039C
039C
039C
039C
039C
039C
039C
039C
039C
039C
039C
039C
039C
ENDCHAR
STARTCHAR 00B7
ENCODING 183
SWIDTH 261 0
DWIDTH 6 0
BBX 4 4 1 4
BITMAP
60
F0
F0
60
ENDCHAR
STARTCHAR 00B8
ENCODING 184
SWIDTH 261 0
DWIDTH 6 0
BBX 5 7 0 -6
BITMAP
60
60
70
18
18
F8
70
ENDCHAR
STARTCHAR 00B9
ENCODING 185
SWIDTH 218 0
DWIDTH 5 0
BBX 3 6 1 12
BITMAP
60
E0
60
60
60
60
ENDCHAR
STARTCHAR 00BA
ENCODING 186
SWIDTH 305 0
DWIDTH 7 0
BBX 6 7 1 9
BITMAP
78
F8
CC
CC
CC
F8
78
ENDCHAR
STARTCHAR 00BB
ENCODING 187
SWIDTH 480 0
DWIDTH 11 0
BBX 9 8 1 1
BITMAP
C600
E700
7700
7380
7380
7700
E700
C600
ENDCHAR
STARTCHAR 00BC
ENCODING 188
SWIDTH 654 0
DWIDTH 15 0
BBX 13 17 1 0
BITMAP
6060
E0C0
60C0
6180
6180
6300
6300
0600
0600
0E00
0C30
1C70
18F0
39B0
31F8
7030
6030
ENDCHAR
STARTCHAR 00BD
ENCODING 189
SWIDTH 654 0
DWIDTH 15 0
BBX 13 17 1 0
BITMAP
6060
E0C0
60C0
6180
6180
6300
6300
0600
0600
0E30
0CF8
1C18
1818
3830
3060
7078
60F8
ENDCHAR
STARTCHAR 00BE
ENCODING 190
SWIDTH 698 0
DWIDTH 16 0
BBX 14 18 1 0
BITMAP
7020
F860
1860
18E0
70C0
19C0
1980
F980
7300
0300
0600
0618
0C38
0C78
18D8
18FC
3018
3018
ENDCHAR
STARTCHAR 00BF
ENCODING 191
SWIDTH 480 0
DWIDTH 11 0
BBX 9 17 1 -7
BITMAP
0C00
1E00
1E00
0C00
0000
0000
0000
1C00
1C00
3C00
7800
F000
E000
E100
FF80
7F00
3E00
ENDCHAR
STARTCHAR 00C0
ENCODING 192
SWIDTH 654 0
DWIDTH 15 0
BBX 15 23 0 0
BITMAP
0200
0700
07C0
00C0
0000
0000
0100
0180
0380
03C0
07C0
07C0
0EE0
0EE0
1E70
1C70
1C38
3FF8
3FFC
7FFC
701C
F00E
E00E
ENDCHAR
STARTCHAR 00C1
ENCODING 193
SWIDTH 654 0
DWIDTH 15 0
BBX 15 23 0 0
BITMAP
0040
01C0
03C0
0700
0000
0000
0100
0180
0380
03C0
07C0
07C0
0EE0
0EE0
1E70
1C70
1C38
3FF8
3FFC
7FFC
701C
F00E
E00E
ENDCHAR
STARTCHAR 00C2
ENCODING 194
SWIDTH 654 0
DWIDTH 15 0
BBX 15 22 0 0
BITMAP
0380
07C0
0EE0
0400
0000
0100
0180
0380
03C0
07C0
07C0
0EE0
0EE0
1E70
1C70
1C38
3FF8
3FFC
7FFC
701C
F00E
E00E
ENDCHAR
STARTCHAR 00C3
ENCODING 195
SWIDTH 654 0
DWIDTH 15 0
BBX 15 23 0 0
BITMAP
0200
0720
0FE0
0DC0
0080
0000
0100
0180
0380
03C0
07C0
07C0
0EE0
0EE0
1E70
1C70
1C38
3FF8
3FFC
7FFC
701C
F00E
E00E
ENDCHAR
STARTCHAR 00C4
ENCODING 196
SWIDTH 654 0
DWIDTH 15 0
BBX 15 22 0 0
BITMAP
0820
1860
1860
0000
0000
0100
0300
0380
0780
07C0
0FC0
0EE0
0EE0
1CE0
1C70
3870
3FF8
7FF8
7FFC
F01C
E01E
E00E
ENDCHAR
STARTCHAR 00C5
ENCODING 197
SWIDTH 654 0
DWIDTH 15 0
BBX 15 24 0 0
BITMAP
0380
07C0
0440
0440
07C0
0380
0000
0100
0380
0380
0380
07C0
07C0
0EE0
0EE0
1C70
1C70
3870
3FF8
3FF8
7FFC
701C
E00E
E00E
ENDCHAR
STARTCHAR 00C6
ENCODING 198
SWIDTH 872 0
DWIDTH 20 0
BBX 20 17 -1 0
BITMAP
003FF0
007FF0
007FF0
00F800
01F800
01F800
03F800
03BFE0
073FE0
073FE0
0E3800
1FF800
1FF800
3FF800
383FF0
703FF0
F03FF0
ENDCHAR
STARTCHAR 00C7
ENCODING 199
SWIDTH 698 0
DWIDTH 16 0
BBX 14 23 1 -6
BITMAP
07E0
1FF8
3FFC
7818
7000
F000
E000
E000
E000
E000
E000
F000
7800
3C08
3FFC
0FFC
07F0
0180
01C0
00E0
0060
03E0
01C0
ENDCHAR
STARTCHAR 00C8
ENCODING 200
SWIDTH 567 0
DWIDTH 13 0
BBX 10 23 2 0
BITMAP
1000
1C00
1E00
0700
0000
0000
FFC0
FFC0
FFC0
E000
E000
E000
E000
FF80
FF80
FF80
E000
E000
E000
E000
FFC0
FFC0
FFC0
ENDCHAR
STARTCHAR 00C9
ENCODING 201
SWIDTH 567 0
DWIDTH 13 0
BBX 10 23 2 0
BITMAP
0200
0700
1E00
1800
0000
0000
FFC0
FFC0
FFC0
E000
E000
E000
E000
FF80
FF80
FF80
E000
E000
E000
E000
FFC0
FFC0
FFC0
ENDCHAR
STARTCHAR 00CA
ENCODING 202
SWIDTH 567 0
DWIDTH 13 0
BBX 10 22 2 1
BITMAP
1C00
3E00
7300
0000
0000
FFC0
FFC0
FFC0
E000
E000
E000
E000
FF80
FF80
FF80
E000
E000
E000
E000
FFC0
FFC0
FFC0
ENDCHAR
STARTCHAR 00CB
ENCODING 203
SWIDTH 567 0
DWIDTH 13 0
BBX 10 22 2 0
BITMAP
2080
6180
6180
0000
0000
FFC0
FFC0
FFC0
E000
E000
E000
E000
FF80
FF80
FF80
E000
E000
E000
E000
FFC0
FFC0
FFC0
ENDCHAR
STARTCHAR 00CC
ENCODING 204
SWIDTH 305 0
DWIDTH 7 0
BBX 5 22 1 1
BITMAP
E0
F8
18
00
00
70
70
70
70
70
70
70
70
70
70
70
70
70
70
70
70
70
ENDCHAR
STARTCHAR 00CD
ENCODING 205
SWIDTH 305 0
DWIDTH 7 0
BBX 5 23 1 0
BITMAP
08
38
78
E0
00
00
70
70
70
70
70
70
70
70
70
70
70
70
70
70
70
70
70
ENDCHAR
STARTCHAR 00CE
ENCODING 206
SWIDTH 305 0
DWIDTH 7 0
BBX 7 22 0 1
BITMAP
38
7C
CE
00
00
38
38
38
38
38
38
38
38
38
38
38
38
38
38
38
38
38
ENDCHAR
STARTCHAR 00CF
ENCODING 207
SWIDTH 305 0
DWIDTH 7 0
BBX 8 22 -1 0
BITMAP
41
E3
E3
00
00
1C
1C
1C
1C
1C
1C
1C
1C
1C
1C
1C
1C
1C
1C
1C
1C
1C
ENDCHAR
STARTCHAR 00D0
ENCODING 208
SWIDTH 741 0
DWIDTH 17 0
BBX 15 17 1 0
BITMAP
7FC0
7FF0
7FF8
7078
701C
701C
700E
700E
FF0E
700E
700E
701C
701C
7078
7FF8
7FE0
7FC0
ENDCHAR
STARTCHAR 00D1
ENCODING 209
SWIDTH 785 0
DWIDTH 18 0
BBX 14 23 2 0
BITMAP
0640
0FC0
1FC0
0980
0000
0000
801C
C01C
E01C
F01C
F81C
FC1C
FE1C
EF1C
E79C
E3DC
E1FC
E0FC
E0FC
E07C
E03C
E01C
E00C
ENDCHAR
STARTCHAR 00D2
ENCODING 210
SWIDTH 785 0
DWIDTH 18 0
BBX 16 23 1 0
BITMAP
0200
0380
03C0
00E0
0000
0000
07E0
1FF8
3FFC
781C
700E
E006
E007
E007
E007
E007
E007
E007
700E
781C
3FFC
1FF8
07E0
ENDCHAR
STARTCHAR 00D3
ENCODING 211
SWIDTH 785 0
DWIDTH 18 0
BBX 16 23 1 0
BITMAP
0040
00E0
03C0
0300
0000
0000
07E0
1FF8
3FFC
781C
700E
E006
E007
E007
E007
E007
E007
E007
700E
781C
3FFC
1FF8
07E0
ENDCHAR
STARTCHAR 00D4
ENCODING 212
SWIDTH 785 0
DWIDTH 18 0
BBX 16 22 1 0
BITMAP
0180
03C0
0660
0420
0000
07E0
1FF8
3FFC
781C
700E
E006
E007
E007
E007
E007
E007
E007
700E
781C
3FFC
1FF8
07E0
ENDCHAR
STARTCHAR 00D5
ENCODING 213
SWIDTH 785 0
DWIDTH 18 0
BBX 16 23 1 0
BITMAP
0320
07F0
07E0
04E0
0000
0000
07E0
1FF8
3FFC
781C
700E
E006
E007
E007
E007
E007
E007
E007
700E
781C
3FFC
1FF8
07E0
ENDCHAR
STARTCHAR 00D6
ENCODING 214
SWIDTH 785 0
DWIDTH 18 0
BBX 16 22 1 0
BITMAP
0C30
0C30
0410
0000
0000
07E0
1FF8
3FFC
781C
700E
E006
E007
E007
E007
E007
E007
E007
700E
781C
3FFC
1FF8
07E0
ENDCHAR
STARTCHAR 00D7
ENCODING 215
SWIDTH 480 0
DWIDTH 11 0
BBX 8 9 1 4
BITMAP
43
E7
7F
3E
1C
3E
77
E3
40
ENDCHAR
STARTCHAR 00D8
ENCODING 216
SWIDTH 785 0
DWIDTH 18 0
BBX 16 17 1 0
BITMAP
07E1
0FFA
3FFC
381E
701E
6037
E067
E0C7
E187
E307
E607
EC06
780E
781C
3FFC
5FF0
87C0
ENDCHAR
STARTCHAR 00D9
ENCODING 217
SWIDTH 698 0
DWIDTH 16 0
BBX 13 23 2 0
BITMAP
0800
0E00
0F00
0380
0000
0000
E038
E038
E038
E038
E038
E038
E038
E038
E038
E038
E038
E030
E030
7070
7FE0
3FC0
0F80
ENDCHAR
STARTCHAR 00DA
ENCODING 218
SWIDTH 698 0
DWIDTH 16 0
BBX 13 23 2 0
BITMAP
0100
0380
0F00
0C00
0000
0000
E038
E038
E038
E038
E038
E038
E038
E038
E038
E038
E038
E030
E030
7070
7FE0
3FC0
0F80
ENDCHAR
STARTCHAR 00DB
ENCODING 219
SWIDTH 698 0
DWIDTH 16 0
BBX 13 23 2 0
BITMAP
0200
0700
0F80
19C0
0000
0000
E038
E038
E038
E038
E038
E038
E038
E038
E038
E038
E038
E030
E030
7070
7FE0
3FC0
0F80
ENDCHAR
STARTCHAR 00DC
ENCODING 220
SWIDTH 698 0
DWIDTH 16 0
BBX 13 22 2 0
BITMAP
18C0
18C0
1040
0000
0000
E038
E038
E038
E038
E038
E038
E038
E038
E038
E038
E038
E030
E030
7070
7FE0
3FC0
0F80
ENDCHAR
STARTCHAR 00DD
ENCODING 221
SWIDTH 567 0
DWIDTH 13 0
BBX 13 23 0 0
BITMAP
0080
0380
0780
0E00
0000
0000
E038
F070
70F0
38E0
39C0
1FC0
0F80
0F00
0700
0700
0700
0700
0700
0700
0700
0700
0700
ENDCHAR
STARTCHAR 00DE
ENCODING 222
SWIDTH 567 0
DWIDTH 13 0
BBX 11 17 2 0
BITMAP
E000
E000
E000
FC00
FF80
FFC0
E1C0
E0C0
E0E0
E0C0
E1C0
FFC0
FF80
FC00
E000
E000
E000
ENDCHAR
STARTCHAR 00DF
ENCODING 223
SWIDTH 480 0
DWIDTH 11 0
BBX 10 17 1 0
BITMAP
1E00
3F00
7F80
E380
E380
E380
E300
E700
E700
E700
E380
E380
E180
E1C0
E780
E780
E700
ENDCHAR
STARTCHAR 00E0
ENCODING 224
SWIDTH 436 0
DWIDTH 10 0
BBX 8 17 1 0
BITMAP
20
38
3C
0E
00
00
00
7E
7F
7F
3F
7F
E7
E7
FF
FF
7B
ENDCHAR
STARTCHAR 00E1
ENCODING 225
SWIDTH 436 0
DWIDTH 10 0
BBX 8 17 1 0
BITMAP
04
1E
3C
30
00
00
00
7E
7F
7F
3F
7F
E7
E7
FF
FF
7B
ENDCHAR
STARTCHAR 00E2
ENCODING 226
SWIDTH 436 0
DWIDTH 10 0
BBX 8 17 1 0
BITMAP
08
1C
7E
62
00
00
00
7E
7F
7F
3F
7F
E7
E7
FF
FF
7B
ENDCHAR
STARTCHAR 00E3
ENCODING 227
SWIDTH 436 0
DWIDTH 10 0
BBX 8 17 1 0
BITMAP
32
7E
FE
4C
00
00
00
7E
7F
7F
3F
7F
E7
E7
FF
FF
7B
ENDCHAR
STARTCHAR 00E4
ENCODING 228
SWIDTH 436 0
DWIDTH 10 0
BBX 8 17 1 0
BITMAP
63
63
22
00
00
00
00
7E
7F
7F
3F
7F
E7
E7
FF
FF
7B
ENDCHAR
STARTCHAR 00E5
ENCODING 229
SWIDTH 436 0
DWIDTH 10 0
BBX 8 17 1 0
BITMAP
1C
3E
26
3E
1C
00
00
7C
7E
7F
3F
7F
E7
E7
FF
FF
7B
ENDCHAR
STARTCHAR 00E6
ENCODING 230
SWIDTH 698 0
DWIDTH 16 0
BBX 14 10 1 0
BITMAP
7CF0
7FF8
7FFC
3FFC
7FFC
E700
E700
FFF8
FDF8
78F0
ENDCHAR
STARTCHAR 00E7
ENCODING 231
SWIDTH 436 0
DWIDTH 10 0
BBX 9 16 1 -6
BITMAP
1E00
7F00
7F00
E200
E000
E000
E100
7F80
7F00
1E00
1800
1C00
0600
0600
1E00
1C00
ENDCHAR
STARTCHAR 00E8
ENCODING 232
SWIDTH 480 0
DWIDTH 11 0
BBX 9 17 1 0
BITMAP
2000
3800
3E00
0600
0000
0000
0000
1E00
7F00
7F80
E380
FF80
FF80
E000
7F00
7F00
3E00
ENDCHAR
STARTCHAR 00E9
ENCODING 233
SWIDTH 480 0
DWIDTH 11 0
BBX 9 17 1 0
BITMAP
0400
0E00
3C00
3000
0000
0000
0000
1E00
7F00
7F80
E380
FF80
FF80
E000
7F00
7F00
3E00
ENDCHAR
STARTCHAR 00EA
ENCODING 234
SWIDTH 480 0
DWIDTH 11 0
BBX 9 17 1 0
BITMAP
0800
1C00
3E00
6300
0000
0000
0000
1E00
7F00
7F80
E380
FF80
FF80
E000
7F00
7F00
3E00
ENDCHAR
STARTCHAR 00EB
ENCODING 235
SWIDTH 480 0
DWIDTH 11 0
BBX 9 17 1 0
BITMAP
6300
6300
2200
0000
0000
0000
0000
1E00
7F00
7F80
E380
FF80
FF80
E000
7F00
7F00
3E00
ENDCHAR
STARTCHAR 00EC
ENCODING 236
SWIDTH 218 0
DWIDTH 5 0
BBX 5 17 0 0
BITMAP
40
E0
78
18
00
00
00
70
70
70
70
70
70
70
70
70
70
ENDCHAR
STARTCHAR 00ED
ENCODING 237
SWIDTH 218 0
DWIDTH 5 0
BBX 5 17 0 0
BITMAP
08
38
F8
C0
00
00
00
70
70
70
70
70
70
70
70
70
70
ENDCHAR
STARTCHAR 00EE
ENCODING 238
SWIDTH 218 0
DWIDTH 5 0
BBX 6 17 -1 0
BITMAP
30
78
FC
C4
00
00
00
38
38
38
38
38
38
38
38
38
38
ENDCHAR
STARTCHAR 00EF
ENCODING 239
SWIDTH 261 0
DWIDTH 6 0
BBX 7 17 -1 0
BITMAP
C6
C6
42
00
00
00
00
38
38
38
38
38
38
38
38
38
38
ENDCHAR
STARTCHAR 00F0
ENCODING 240
SWIDTH 523 0
DWIDTH 12 0
BBX 11 17 1 1
BITMAP
3900
3F00
1F00
3F00
2380
01C0
1FC0
7FC0
7FC0
E1C0
E0E0
E0C0
E0C0
E1C0
7F80
3F80
1E00
ENDCHAR
STARTCHAR 00F1
ENCODING 241
SWIDTH 480 0
DWIDTH 11 0
BBX 9 17 1 0
BITMAP
1900
3F80
3F00
2600
0000
0000
0000
DE00
FF00
FF80
E380
E380
E380
E380
E380
E380
E380
ENDCHAR
STARTCHAR 00F2
ENCODING 242
SWIDTH 480 0
DWIDTH 11 0
BBX 9 17 1 0
BITMAP
3000
3800
1E00
0600
0000
0000
0000
1E00
7F00
7F80
E380
E180
E180
E380
7F80
7F00
1E00
ENDCHAR
STARTCHAR 00F3
ENCODING 243
SWIDTH 480 0
DWIDTH 11 0
BBX 9 17 1 0
BITMAP
0400
0E00
3C00
3000
0000
0000
0000
1E00
7F00
7F80
E380
E180
E180
E380
7F80
7F00
1E00
ENDCHAR
STARTCHAR 00F4
ENCODING 244
SWIDTH 480 0
DWIDTH 11 0
BBX 9 17 1 0
BITMAP
0800
1C00
3F00
2300
0000
0000
0000
1E00
7F00
7F80
E380
E180
E180
E380
7F80
7F00
1E00
ENDCHAR
STARTCHAR 00F5
ENCODING 245
SWIDTH 480 0
DWIDTH 11 0
BBX 9 17 1 0
BITMAP
3B00
7F00
7E00
4400
0000
0000
0000
1E00
7F00
7F80
E380
E180
E180
E380
7F80
7F00
1E00
ENDCHAR
STARTCHAR 00F6
ENCODING 246
SWIDTH 480 0
DWIDTH 11 0
BBX 9 17 1 0
BITMAP
6300
6300
2200
0000
0000
0000
0000
1E00
7F00
7F80
E380
E180
E180
E380
7F80
7F00
1E00
ENDCHAR
STARTCHAR 00F7
ENCODING 247
SWIDTH 523 0
DWIDTH 12 0
BBX 10 13 1 2
BITMAP
1C00
1C00
1C00
0000
0000
FFC0
FFC0
FFC0
0000
0000
1C00
1C00
1C00
ENDCHAR
STARTCHAR 00F8
ENCODING 248
SWIDTH 480 0
DWIDTH 11 0
BBX 9 10 1 0
BITMAP
1E80
7F80
7F80
E780
ED80
F980
F380
7F80
7F00
FE00
ENDCHAR
STARTCHAR 00F9
ENCODING 249
SWIDTH 480 0
DWIDTH 11 0
BBX 9 17 1 0
BITMAP
1000
3800
1E00
0600
0000
0000
0000
E380
E380
E380
E380
E380
E380
E380
FF80
7F80
3D80
ENDCHAR
STARTCHAR 00FA
ENCODING 250
SWIDTH 480 0
DWIDTH 11 0
BBX 9 17 1 0
BITMAP
0200
0E00
1E00
3000
0000
0000
0000
E380
E380
E380
E380
E380
E380
E380
FF80
7F80
3D80
ENDCHAR
STARTCHAR 00FB
ENCODING 251
SWIDTH 480 0
DWIDTH 11 0
BBX 9 17 1 0
BITMAP
0800
3E00
7700
6300
0000
0000
0000
E380
E380
E380
E380
E380
E380
E380
FF80
7F80
3D80
ENDCHAR
STARTCHAR 00FC
ENCODING 252
SWIDTH 480 0
DWIDTH 11 0
BBX 9 17 1 0
BITMAP
6300
6300
2200
0000
0000
0000
0000
E380
E380
E380
E380
E380
E380
E380
FF80
7F80
3D80
ENDCHAR
STARTCHAR 00FD
ENCODING 253
SWIDTH 480 0
DWIDTH 11 0
BBX 10 24 0 -7
BITMAP
0200
0700
1E00
1800
0000
0000
0000
E0C0
71C0
71C0
7380
3B80
3F00
1F00
1E00
0E00
0E00
1C00
1C00
3800
3800
7000
7000
7000
ENDCHAR
STARTCHAR 00FE
ENCODING 254
SWIDTH 480 0
DWIDTH 11 0
BBX 9 24 1 -7
BITMAP
E000
E000
E000
E000
E000
E000
E000
FE00
FF00
FF80
E380
E180
E180
E380
FF80
FF00
FE00
E000
E000
E000
E000
E000
E000
E000
ENDCHAR
STARTCHAR 00FF
ENCODING 255
SWIDTH 480 0
DWIDTH 11 0
BBX 10 24 1 -7
BITMAP
6300
6300
2100
0000
0000
0000
0000
E1C0
E180
E380
7380
7700
3F00
3E00
1E00
1C00
1C00
1C00
3800
3800
7000
7000
E000
E000
ENDCHAR
STARTCHAR 0100
ENCODING 256
SWIDTH 654 0
DWIDTH 15 0
BBX 15 22 0 0
BITMAP
0FE0
0FE0
0000
0000
0000
0100
0380
0380
03C0
07C0
07C0
0EE0
0EE0
1C70
1C70
3838
3FF8
3FFC
7FFC
701C
E00E
E00E
ENDCHAR
STARTCHAR 0101
ENCODING 257
SWIDTH 436 0
DWIDTH 10 0
BBX 8 16 1 0
BITMAP
7F
7F
00
00
00
00
7E
7F
7F
3F
7F
E7
E7
FF
FF
7B
ENDCHAR
STARTCHAR 0102
ENCODING 258
SWIDTH 654 0
DWIDTH 15 0
BBX 15 22 0 0
BITMAP
0C60
07C0
0380
0000
0000
0100
0180
0380
03C0
07C0
07C0
0EE0
0EE0
1E70
1C70
1C38
3FF8
3FFC
7FFC
701C
F00E
E00E
ENDCHAR
STARTCHAR 0103
ENCODING 259
SWIDTH 436 0
DWIDTH 10 0
BBX 8 16 1 0
BITMAP
66
7E
3C
00
00
00
7E
7F
7F
3F
7F
E7
E7
FF
FF
7B
ENDCHAR
STARTCHAR 0104
ENCODING 260
SWIDTH 698 0
DWIDTH 16 0
BBX 16 23 0 -6
BITMAP
0180
0180
01C0
03C0
03C0
07E0
07E0
0E70
0E70
1C78
1C38
3FFC
3FFC
3FFC
700E
700E
E007
0008
0018
0018
0018
001F
000F
ENDCHAR
STARTCHAR 0105
ENCODING 261
SWIDTH 436 0
DWIDTH 10 0
BBX 9 15 1 -5
BITMAP
7E00
7F00
7F00
3F00
7F00
E700
E700
FF00
FF00
7B00
0600
0C00
0C00
0F80
0780
ENDCHAR
STARTCHAR 0106
ENCODING 262
SWIDTH 698 0
DWIDTH 16 0
BBX 14 23 1 0
BITMAP
0040
00E0
03C0
0300
0000
0000
07E0
1FF8
3FFC
7818
7000
F000
E000
E000
E000
E000
E000
F000
7000
7818
3FFC
1FF8
07E0
ENDCHAR
STARTCHAR 0107
ENCODING 263
SWIDTH 436 0
DWIDTH 10 0
BBX 8 17 1 0
BITMAP
06
0E
3C
30
00
00
00
1E
7F
7F
E2
E0
E0
E2
7F
7F
1E
ENDCHAR
STARTCHAR 0108
ENCODING 264
SWIDTH 698 0
DWIDTH 16 0
BBX 14 22 1 0
BITMAP
0180
03C0
0660
0420
0000
07E0
1FF8
3FFC
7818
7000
F000
E000
E000
E000
E000
E000
F000
7000
7818
3FFC
1FF8
07E0
ENDCHAR
STARTCHAR 0109
ENCODING 265
SWIDTH 436 0
DWIDTH 10 0
BBX 8 17 1 0
BITMAP
08
1C
3F
63
00
00
00
1E
7F
7F
E2
E0
E0
E2
7F
7F
1E
ENDCHAR
STARTCHAR 010A
ENCODING 266
SWIDTH 698 0
DWIDTH 16 0
BBX 14 23 1 0
BITMAP
0080
01C0
01C0
0080
0000
0000
07E0
1FF8
3FFC
7818
7000
F000
E000
E000
E000
E000
E000
F000
7000
7818
3FFC
1FF8
07E0
ENDCHAR
STARTCHAR 010B
ENCODING 267
SWIDTH 436 0
DWIDTH 10 0
BBX 8 17 1 0
BITMAP
08
1C
1C
08
00
00
00
1E
7F
7F
E2
E0
E0
E2
7F
7F
1E
ENDCHAR
STARTCHAR 010C
ENCODING 268
SWIDTH 698 0
DWIDTH 16 0
BBX 14 22 1 0
BITMAP
0660
07E0
03C0
0100
0000
07E0
1FF8
3FFC
7818
7000
F000
E000
E000
E000
E000
E000
F000
7000
7818
3FFC
1FF8
07E0
ENDCHAR
STARTCHAR 010D
ENCODING 269
SWIDTH 436 0
DWIDTH 10 0
BBX 8 17 1 0
BITMAP
21
77
3E
0C
00
00
00
1E
7F
7F
E2
E0
E0
E2
7F
7F
1E
ENDCHAR
STARTCHAR 010E
ENCODING 270
SWIDTH 741 0
DWIDTH 17 0
BBX 14 22 2 1
BITMAP
3980
1F00
0E00
0000
0000
FF80
FFE0
FFF0
E0F0
E038
E038
E01C
E01C
E01C
E01C
E01C
E038
E038
E0F0
FFF0
FFC0
FF80
ENDCHAR
STARTCHAR 010F
ENCODING 271
SWIDTH 523 0
DWIDTH 12 0
BBX 15 17 1 0
BITMAP
038C
039E
0386
0382
0384
038C
0380
3F80
7F80
7F80
E380
E380
E380
E380
7F80
7F80
3D80
ENDCHAR
STARTCHAR 0110
ENCODING 272
SWIDTH 741 0
DWIDTH 17 0
BBX 15 17 1 0
BITMAP
7FC0
7FF0
7FF8
7078
701C
701C
700E
700E
FF0E
700E
700E
701C
701C
7078
7FF8
7FE0
7FC0
ENDCHAR
STARTCHAR 0111
ENCODING 273
SWIDTH 480 0
DWIDTH 11 0
BBX 10 17 1 0
BITMAP
0380
0380
0380
1FC0
0380
0380
0380
3F80
7F80
7F80
E380
E380
E380
E380
7F80
7F80
3D80
ENDCHAR
STARTCHAR 0112
ENCODING 274
SWIDTH 567 0
DWIDTH 13 0
BBX 10 22 2 0
BITMAP
3F80
3F80
0000
0000
0000
FFC0
FFC0
FFC0
E000
E000
E000
E000
FF80
FF80
FF80
E000
E000
E000
E000
FFC0
FFC0
FFC0
ENDCHAR
STARTCHAR 0113
ENCODING 275
SWIDTH 480 0
DWIDTH 11 0
BBX 9 16 1 0
BITMAP
7F00
7F00
0000
0000
0000
0000
1E00
7F00
7F80
E380
FF80
FF80
E000
7F00
7F00
3E00
ENDCHAR
STARTCHAR 0114
ENCODING 276
SWIDTH 567 0
DWIDTH 13 0
BBX 10 22 2 0
BITMAP
3180
1F00
0E00
0000
0000
FFC0
FFC0
FFC0
E000
E000
E000
E000
FF80
FF80
FF80
E000
E000
E000
E000
FFC0
FFC0
FFC0
ENDCHAR
STARTCHAR 0115
ENCODING 277
SWIDTH 480 0
DWIDTH 11 0
BBX 9 17 1 0
BITMAP
0200
6600
3E00
1C00
0000
0000
0000
1E00
7F00
7F80
E380
FF80
FF80
E000
7F00
7F00
3E00
ENDCHAR
STARTCHAR 0116
ENCODING 278
SWIDTH 567 0
DWIDTH 13 0
BBX 10 23 2 0
BITMAP
0400
0E00
0E00
0400
0000
0000
FFC0
FFC0
FFC0
E000
E000
E000
E000
FF80
FF80
FF80
E000
E000
E000
E000
FFC0
FFC0
FFC0
ENDCHAR
STARTCHAR 0117
ENCODING 279
SWIDTH 480 0
DWIDTH 11 0
BBX 9 17 1 0
BITMAP
0800
1C00
1C00
0800
0000
0000
0000
1E00
7F00
7F80
E380
FF80
FF80
E000
7F00
7F00
3E00
ENDCHAR
STARTCHAR 0118
ENCODING 280
SWIDTH 567 0
DWIDTH 13 0
BBX 12 23 2 -6
BITMAP
FFC0
FFC0
FFC0
E000
E000
E000
E000
FF80
FF80
FF80
E000
E000
E000
E000
FFC0
FFC0
FFC0
0080
0180
0180
0180
01F0
00F0
ENDCHAR
STARTCHAR 0119
ENCODING 281
SWIDTH 480 0
DWIDTH 11 0
BBX 9 16 1 -6
BITMAP
1E00
7F00
7F00
E380
FF80
FF80
E000
E000
7F00
3F00
0C00
1800
1800
1800
1F00
0F00
ENDCHAR
STARTCHAR 011A
ENCODING 282
SWIDTH 567 0
DWIDTH 13 0
BBX 10 22 2 1
BITMAP
7300
3E00
1C00
0000
0000
FFC0
FFC0
FFC0
E000
E000
E000
E000
FF80
FF80
FF80
E000
E000
E000
E000
FFC0
FFC0
FFC0
ENDCHAR
STARTCHAR 011B
ENCODING 283
SWIDTH 480 0
DWIDTH 11 0
BBX 9 17 1 0
BITMAP
2200
7700
3E00
1C00
0000
0000
0000
1E00
7F00
7F80
E380
FF80
FF80
E000
7F00
7F00
3E00
ENDCHAR
STARTCHAR 011C
ENCODING 284
SWIDTH 698 0
DWIDTH 16 0
BBX 14 22 1 0
BITMAP
01C0
03E0
0770
0020
0000
07E0
1FF8
3FFC
7818
7000
F000
E000
E000
E07C
E07C
E07C
F01C
701C
7C1C
3FFC
1FFC
07E0
ENDCHAR
STARTCHAR 011D
ENCODING 285
SWIDTH 523 0
DWIDTH 12 0
BBX 10 24 1 -7
BITMAP
0400
1E00
3F00
3300
0000
0000
0000
1FC0
3FC0
7F80
7380
7380
7F80
7F00
FE00
E000
FE00
7F80
3FC0
61C0
E1C0
7FC0
7F80
3F00
ENDCHAR
STARTCHAR 011E
ENCODING 286
SWIDTH 698 0
DWIDTH 16 0
BBX 14 23 1 0
BITMAP
0420
0660
07E0
03C0
0000
0000
07E0
1FF8
3FFC
7818
7000
F000
E000
E000
E07C
E07C
E07C
F01C
701C
7C1C
3FFC
1FFC
07E0
ENDCHAR
STARTCHAR 011F
ENCODING 287
SWIDTH 523 0
DWIDTH 12 0
BBX 10 24 1 -7
BITMAP
3180
1980
1F00
0E00
0000
0000
0000
1FC0
3FC0
7F80
7380
7380
7F80
7F00
FE00
E000
FE00
7F80
3FC0
61C0
E1C0
7FC0
7F80
3F00
ENDCHAR
STARTCHAR 0120
ENCODING 288
SWIDTH 698 0
DWIDTH 16 0
BBX 14 23 1 0
BITMAP
0080
01C0
01C0
0080
0000
0000
07E0
1FF8
3FFC
7818
7000
F000
E000
E000
E07C
E07C
E07C
F01C
701C
7C1C
3FFC
1FFC
07E0
ENDCHAR
STARTCHAR 0121
ENCODING 289
SWIDTH 523 0
DWIDTH 12 0
BBX 10 24 1 -7
BITMAP
0400
0E00
0E00
0400
0000
0000
0000
1FC0
3FC0
7F80
7380
7380
7F80
7F00
FE00
E000
FE00
7F80
3FC0
61C0
E1C0
7FC0
7F80
3F00
ENDCHAR
STARTCHAR 0122
ENCODING 290
SWIDTH 698 0
DWIDTH 16 0
BBX 14 26 1 -9
BITMAP
07E0
1FF8
3FFC
7818
7000
F000
E000
E000
E07C
E07C
E07C
F01C
701C
7C1C
3FFC
1FFC
07E0
0000
0000
0080
03C0
01C0
0040
0040
0080
0180
ENDCHAR
STARTCHAR 0123
ENCODING 291
SWIDTH 523 0
DWIDTH 12 0
BBX 10 28 1 -7
BITMAP
0600
0400
0800
0800
0E00
0E00
0400
0000
0000
0000
0000
1FC0
3FC0
7F80
7380
7380
7F80
7F00
FE00
E000
FE00
7F80
3FC0
61C0
E1C0
7FC0
7F80
3F00
ENDCHAR
STARTCHAR 0124
ENCODING 292
SWIDTH 741 0
DWIDTH 17 0
BBX 13 23 2 0
BITMAP
0200
0700
0F80
1DC0
0000
0000
E038
E038
E038
E038
E038
E038
E038
FFF8
FFF8
FFF8
E038
E038
E038
E038
E038
E038
E038
ENDCHAR
STARTCHAR 0125
ENCODING 293
SWIDTH 480 0
DWIDTH 11 0
BBX 11 22 -1 0
BITMAP
3000
7800
FC00
C400
0000
3800
3800
3800
3800
3800
3800
3800
3F80
3FC0
3FE0
38E0
38E0
38E0
38E0
38E0
38E0
38E0
ENDCHAR
STARTCHAR 0126
ENCODING 294
SWIDTH 741 0
DWIDTH 17 0
BBX 15 17 1 0
BITMAP
701C
701C
701C
FFFE
701C
701C
701C
7FFC
7FFC
7FFC
701C
701C
701C
701C
701C
701C
701C
ENDCHAR
STARTCHAR 0127
ENCODING 295
SWIDTH 480 0
DWIDTH 11 0
BBX 10 17 0 0
BITMAP
7000
7000
7000
FE00
7000
7000
7000
7F00
7F80
7FC0
71C0
71C0
71C0
71C0
71C0
71C0
71C0
ENDCHAR
STARTCHAR 0128
ENCODING 296
SWIDTH 305 0
DWIDTH 7 0
BBX 7 23 0 0
BITMAP
20
72
FE
DC
08
00
38
38
38
38
38
38
38
38
38
38
38
38
38
38
38
38
38
ENDCHAR
STARTCHAR 0129
ENCODING 297
SWIDTH 218 0
DWIDTH 5 0
BBX 7 17 -1 0
BITMAP
72
7E
FE
4C
00
00
00
38
38
38
38
38
38
38
38
38
38
ENDCHAR
STARTCHAR 012A
ENCODING 298
SWIDTH 392 0
DWIDTH 9 0
BBX 7 22 1 0
BITMAP
FE
FE
00
00
00
38
38
38
38
38
38
38
38
38
38
38
38
38
38
38
38
38
ENDCHAR
STARTCHAR 012B
ENCODING 299
SWIDTH 305 0
DWIDTH 7 0
BBX 7 16 0 0
BITMAP
FE
FE
00
00
00
00
38
38
38
38
38
38
38
38
38
38
ENDCHAR
STARTCHAR 012C
ENCODING 300
SWIDTH 305 0
DWIDTH 7 0
BBX 7 22 0 0
BITMAP
C6
7C
38
00
00
38
38
38
38
38
38
38
38
38
38
38
38
38
38
38
38
38
ENDCHAR
STARTCHAR 012D
ENCODING 301
SWIDTH 218 0
DWIDTH 5 0
BBX 6 17 0 0
BITMAP
84
CC
F8
70
00
00
00
70
70
70
70
70
70
70
70
70
70
ENDCHAR
STARTCHAR 012E
ENCODING 302
SWIDTH 305 0
DWIDTH 7 0
BBX 5 23 1 -6
BITMAP
70
70
70
70
70
70
70
70
70
70
70
70
70
70
70
70
70
40
C0
C0
C0
F8
78
ENDCHAR
STARTCHAR 012F
ENCODING 303
SWIDTH 261 0
DWIDTH 6 0
BBX 5 23 1 -6
BITMAP
70
70
70
00
00
00
00
70
70
70
70
70
70
70
70
70
70
60
C0
C0
C0
F8
78
ENDCHAR
STARTCHAR 0130
ENCODING 304
SWIDTH 305 0
DWIDTH 7 0
BBX 3 23 2 0
BITMAP
C0
C0
C0
C0
00
00
E0
E0
E0
E0
E0
E0
E0
E0
E0
E0
E0
E0
E0
E0
E0
E0
E0
ENDCHAR
STARTCHAR 0131
ENCODING 305
SWIDTH 218 0
DWIDTH 5 0
BBX 3 10 1 0
BITMAP
E0
E0
E0
E0
E0
E0
E0
E0
E0
E0
ENDCHAR
STARTCHAR 0132
ENCODING 306
SWIDTH 741 0
DWIDTH 17 0
BBX 13 17 2 0
BITMAP
E038
E038
E038
E038
E038
E038
E038
E038
E038
E038
E038
E038
E038
E038
E3F8
E7F0
E1E0
ENDCHAR
STARTCHAR 0133
ENCODING 307
SWIDTH 480 0
DWIDTH 11 0
BBX 9 24 1 -7
BITMAP
E380
E380
E380
0000
0000
0000
0000
E380
E380
E380
E380
E380
E380
E380
E380
E380
E380
0380
0380
0380
0380
3F80
3F00
1E00
ENDCHAR
STARTCHAR 0134
ENCODING 308
SWIDTH 392 0
DWIDTH 9 0
BBX 10 23 0 0
BITMAP
0200
0700
0F80
19C0
0000
0000
0700
0700
0700
0700
0700
0700
0700
0700
0700
0700
0700
0700
0600
4600
FE00
FC00
7800
ENDCHAR
STARTCHAR 0135
ENCODING 309
SWIDTH 218 0
DWIDTH 5 0
BBX 8 24 -3 -7
BITMAP
0C
1E
3F
31
00
00
00
0E
0E
0E
0E
0E
0E
0E
0E
0E
0E
0E
0E
0C
0C
FC
FC
70
ENDCHAR
STARTCHAR 0136
ENCODING 310
SWIDTH 654 0
DWIDTH 15 0
BBX 13 26 2 -9
BITMAP
E070
E0F0
E1E0
E3C0
E780
EF00
EF00
FE00
FE00
FE00
EF00
E780
E3C0
E1E0
E1E0
E0F0
E078
0000
0000
0200
0F00
0700
0100
0300
0200
0400
ENDCHAR
STARTCHAR 0137
ENCODING 311
SWIDTH 436 0
DWIDTH 10 0
BBX 9 26 1 -9
BITMAP
E000
E000
E000
E000
E000
E000
E000
E780
E700
EE00
FC00
F800
FC00
FE00
EF00
E780
E380
0000
0000
0800
1C00
1C00
0400
0C00
0800
1000
ENDCHAR
STARTCHAR 0138
ENCODING 312
SWIDTH 480 0
DWIDTH 11 0
BBX 9 10 1 0
BITMAP
E380
E700
EE00
FE00
FC00
FC00
FE00
EF00
E780
E380
ENDCHAR
STARTCHAR 0139
ENCODING 313
SWIDTH 523 0
DWIDTH 12 0
BBX 11 22 1 1
BITMAP
3800
7800
E000
0000
0000
7000
7000
7000
7000
7000
7000
7000
7000
7000
7000
7000
7000
7000
7000
7FC0
7FE0
7FE0
ENDCHAR
STARTCHAR 013A
ENCODING 314
SWIDTH 218 0
DWIDTH 5 0
BBX 5 22 0 0
BITMAP
18
38
F0
C0
00
70
70
70
70
70
70
70
70
70
70
70
70
70
70
70
70
70
ENDCHAR
STARTCHAR 013B
ENCODING 315
SWIDTH 523 0
DWIDTH 12 0
BBX 10 26 2 -9
BITMAP
E000
E000
E000
E000
E000
E000
E000
E000
E000
E000
E000
E000
E000
E000
FF80
FFC0
FFC0
0000
0000
0800
1C00
1C00
0400
0C00
0800
1000
ENDCHAR
STARTCHAR 013C
ENCODING 316
SWIDTH 261 0
DWIDTH 6 0
BBX 4 26 1 -9
BITMAP
70
70
70
70
70
70
70
70
70
70
70
70
70
70
70
70
70
00
00
20
F0
70
10
30
20
40
ENDCHAR
STARTCHAR 013D
ENCODING 317
SWIDTH 523 0
DWIDTH 12 0
BBX 10 17 2 0
BITMAP
E300
E780
E180
E080
E100
E300
E000
E000
E000
E000
E000
E000
E000
E000
FF80
FFC0
FFC0
ENDCHAR
STARTCHAR 013E
ENCODING 318
SWIDTH 218 0
DWIDTH 5 0
BBX 8 17 1 0
BITMAP
E6
E7
E3
E1
E2
E6
E0
E0
E0
E0
E0
E0
E0
E0
E0
E0
E0
ENDCHAR
STARTCHAR 013F
ENCODING 319
SWIDTH 567 0
DWIDTH 13 0
BBX 10 17 2 0
BITMAP
E000
E000
E000
E000
E000
E000
E000
E1C0
E1C0
E1C0
E000
E000
E000
E000
FF80
FF80
FF80
ENDCHAR
STARTCHAR 0140
ENCODING 320
SWIDTH 392 0
DWIDTH 9 0
BBX 7 17 1 0
BITMAP
E0
E0
E0
E0
E0
E0
E4
EE
EE
E4
E0
E0
E0
E0
E0
E0
E0
ENDCHAR
STARTCHAR 0141
ENCODING 321
SWIDTH 523 0
DWIDTH 12 0
BBX 11 17 1 0
BITMAP
7000
7000
7000
7000
7000
7400
7C00
7000
F000
F000
7000
7000
7000
7000
7FC0
7FE0
7FE0
ENDCHAR
STARTCHAR 0142
ENCODING 322
SWIDTH 261 0
DWIDTH 6 0
BBX 7 17 0 0
BITMAP
38
38
38
38
38
3A
3C
38
78
F8
38
38
38
38
38
38
38
ENDCHAR
STARTCHAR 0143
ENCODING 323
SWIDTH 785 0
DWIDTH 18 0
BBX 14 23 2 0
BITMAP
0080
0380
0780
0E00
0000
0000
801C
C01C
E01C
F01C
F81C
FC1C
FE1C
EF1C
E79C
E3DC
E1FC
E0FC
E0FC
E07C
E03C
E01C
E00C
ENDCHAR
STARTCHAR 0144
ENCODING 324
SWIDTH 480 0
DWIDTH 11 0
BBX 9 17 1 0
BITMAP
0200
0F00
1E00
1800
0000
0000
0000
DE00
FF00
FF80
E380
E380
E380
E380
E380
E380
E380
ENDCHAR
STARTCHAR 0145
ENCODING 325
SWIDTH 785 0
DWIDTH 18 0
BBX 14 26 2 -9
BITMAP
801C
C01C
E01C
F01C
F81C
FC1C
FE1C
EF1C
E79C
E3DC
E1FC
E0FC
E0FC
E07C
E03C
E01C
E00C
0000
0000
0100
0780
0380
0080
0180
0100
0200
ENDCHAR
STARTCHAR 0146
ENCODING 326
SWIDTH 480 0
DWIDTH 11 0
BBX 9 19 1 -9
BITMAP
DE00
FF00
FF80
E380
E380
E380
E380
E380
E380
E380
0000
0000
0800
1C00
1C00
0400
0C00
0800
1000
ENDCHAR
STARTCHAR 0147
ENCODING 327
SWIDTH 785 0
DWIDTH 18 0
BBX 14 22 2 0
BITMAP
0CC0
0FC0
0700
0200
0000
801C
C01C
E01C
F01C
F81C
FC1C
FE1C
EF1C
E79C
E3DC
E1FC
E0FC
E0FC
E07C
E03C
E01C
E00C
ENDCHAR
STARTCHAR 0148
ENCODING 328
SWIDTH 480 0
DWIDTH 11 0
BBX 9 17 1 0
BITMAP
2100
7700
3E00
0C00
0000
0000
0000
DE00
FF00
FF80
E380
E380
E380
E380
E380
E380
E380
ENDCHAR
STARTCHAR 0149
ENCODING 329
SWIDTH 523 0
DWIDTH 12 0
BBX 14 17 -3 0
BITMAP
C000
E000
6000
2000
4000
C000
0000
0CF0
0FF8
0FFC
0E1C
0E1C
0E1C
0E1C
0E1C
0E1C
0E1C
ENDCHAR
STARTCHAR 014A
ENCODING 330
SWIDTH 785 0
DWIDTH 18 0
BBX 14 24 2 -7
BITMAP
801C
C01C
E01C
F01C
F81C
FC1C
FE1C
EF1C
E79C
E3DC
E1FC
E0FC
E07C
E03C
E03C
E01C
E01C
001C
001C
0018
0018
01F8
01F8
00F0
ENDCHAR
STARTCHAR 014B
ENCODING 331
SWIDTH 480 0
DWIDTH 11 0
BBX 9 17 1 -7
BITMAP
DE00
FF00
FF80
E380
E380
E380
E380
E380
E380
E380
0380
0380
0380
0380
1F80
3F00
1E00
ENDCHAR
STARTCHAR 014C
ENCODING 332
SWIDTH 785 0
DWIDTH 18 0
BBX 16 22 1 0
BITMAP
07F0
07F0
0000
0000
0000
07E0
1FF8
3FFC
781C
700E
E006
E007
E007
E007
E007
E007
E007
700E
781C
3FFC
1FF8
07E0
ENDCHAR
STARTCHAR 014D
ENCODING 333
SWIDTH 480 0
DWIDTH 11 0
BBX 9 16 1 0
BITMAP
7F00
7F00
0000
0000
0000
0000
1E00
7F00
7F80
E380
E180
E180
E380
7F80
7F00
1E00
ENDCHAR
STARTCHAR 014E
ENCODING 334
SWIDTH 785 0
DWIDTH 18 0
BBX 16 23 1 0
BITMAP
0420
0660
07E0
03C0
0000
0000
07E0
1FF8
3FFC
781C
700E
E006
E007
E007
E007
E007
E007
E007
700E
781C
3FFC
1FF8
07E0
ENDCHAR
STARTCHAR 014F
ENCODING 335
SWIDTH 480 0
DWIDTH 11 0
BBX 9 17 1 0
BITMAP
0200
6600
3E00
1C00
0000
0000
0000
1E00
7F00
7F80
E380
E180
E180
E380
7F80
7F00
1E00
ENDCHAR
STARTCHAR 0150
ENCODING 336
SWIDTH 785 0
DWIDTH 18 0
BBX 16 23 1 0
BITMAP
01B8
03B0
0330
0320
0000
0000
07E0
1FF8
3FFC
781C
700E
E006
E007
E007
E007
E007
E007
E007
700E
781C
3FFC
1FF8
07E0
ENDCHAR
STARTCHAR 0151
ENCODING 337
SWIDTH 480 0
DWIDTH 11 0
BBX 9 17 1 0
BITMAP
1B80
3B00
3300
2200
0000
0000
0000
1E00
7F00
7F80
E380
E180
E180
E380
7F80
7F00
1E00
ENDCHAR
STARTCHAR 0152
ENCODING 338
SWIDTH 960 0
DWIDTH 22 0
BBX 20 17 1 0
BITMAP
03FFF0
0FFFF0
3FFFF0
383800
703800
E03800
E03800
E03FE0
E03FE0
E03FE0
E03800
E03800
703800
383800
3FFFF0
0FFFF0
03FFF0
ENDCHAR
STARTCHAR 0153
ENCODING 339
SWIDTH 741 0
DWIDTH 17 0
BBX 15 10 1 0
BITMAP
1E78
7FFC
7FFE
E3C6
E1FE
E1FE
E3C0
7FFE
7FFE
1E7C
ENDCHAR
STARTCHAR 0154
ENCODING 340
SWIDTH 654 0
DWIDTH 15 0
BBX 12 22 2 1
BITMAP
0700
1F00
1C00
0000
0000
FF80
FFE0
FFE0
E070
E070
E070
E0F0
FFE0
FFC0
FF80
E3C0
E3C0
E1C0
E1E0
E0E0
E0F0
E070
ENDCHAR
STARTCHAR 0155
ENCODING 341
SWIDTH 305 0
DWIDTH 7 0
BBX 6 17 1 0
BITMAP
08
3C
78
60
00
00
00
DC
FC
F8
E0
E0
E0
E0
E0
E0
E0
ENDCHAR
STARTCHAR 0156
ENCODING 342
SWIDTH 654 0
DWIDTH 15 0
BBX 12 26 2 -9
BITMAP
FF80
FFE0
FFE0
E070
E070
E070
E0F0
FFE0
FFC0
FF80
E3C0
E1C0
E1C0
E0E0
E0E0
E0F0
E070
0000
0000
0600
0F00
0F00
0100
0300
0200
0400
ENDCHAR
STARTCHAR 0157
ENCODING 343
SWIDTH 305 0
DWIDTH 7 0
BBX 7 19 0 -9
BITMAP
6E
7E
7C
70
70
70
70
70
70
70
00
00
20
F0
70
10
30
20
40
ENDCHAR
STARTCHAR 0158
ENCODING 344
SWIDTH 654 0
DWIDTH 15 0
BBX 12 22 2 1
BITMAP
3380
1F00
0E00
0000
0000
FF80
FFE0
FFE0
E070
E070
E070
E0F0
FFE0
FFC0
FF80
E3C0
E3C0
E1C0
E1E0
E0E0
E0F0
E070
ENDCHAR
STARTCHAR 0159
ENCODING 345
SWIDTH 305 0
DWIDTH 7 0
BBX 7 17 0 0
BITMAP
04
EE
7C
38
00
00
00
6E
7E
7C
70
70
70
70
70
70
70
ENDCHAR
STARTCHAR 015A
ENCODING 346
SWIDTH 523 0
DWIDTH 12 0
BBX 10 23 1 0
BITMAP
0200
0700
1E00
1800
0000
0000
3E00
7F80
FF80
E180
E000
E000
F000
7C00
3F00
0F80
03C0
01C0
01C0
C1C0
FF80
FF80
3E00
ENDCHAR
STARTCHAR 015B
ENCODING 347
SWIDTH 392 0
DWIDTH 9 0
BBX 7 17 1 0
BITMAP
08
1C
78
60
00
00
00
7C
FC
FC
E0
78
3C
0E
7E
FE
7C
ENDCHAR
STARTCHAR 015C
ENCODING 348
SWIDTH 523 0
DWIDTH 12 0
BBX 10 22 1 0
BITMAP
0C00
3E00
7700
2100
0000
3E00
7F80
FF80
E180
E000
E000
F000
7C00
3F00
0F80
03C0
01C0
01C0
C1C0
FF80
FF80
3E00
ENDCHAR
STARTCHAR 015D
ENCODING 349
SWIDTH 392 0
DWIDTH 9 0
BBX 7 17 1 0
BITMAP
10
38
7C
C6
00
00
00
7C
FC
FC
E0
78
3C
0E
7E
FE
7C
ENDCHAR
STARTCHAR 015E
ENCODING 350
SWIDTH 523 0
DWIDTH 12 0
BBX 10 23 1 -6
BITMAP
3E00
7F80
FF80
E180
E000
E000
F000
7C00
3F00
0F80
03C0
01C0
01C0
61C0
FFC0
7F80
3F00
0C00
0E00
0700
0300
1F00
0E00
ENDCHAR
STARTCHAR 015F
ENCODING 351
SWIDTH 349 0
DWIDTH 8 0
BBX 7 16 1 -6
BITMAP
7C
FC
FC
E0
78
3C
0C
FE
FC
78
30
38
1C
0C
7C
38
ENDCHAR
STARTCHAR 0160
ENCODING 352
SWIDTH 523 0
DWIDTH 12 0
BBX 10 22 1 0
BITMAP
3300
3F00
1C00
0800
0000
3E00
7F80
FF80
E180
E000
E000
F000
7C00
3F00
0F80
03C0
01C0
01C0
C1C0
FF80
FF80
3E00
ENDCHAR
STARTCHAR 0161
ENCODING 353
SWIDTH 392 0
DWIDTH 9 0
BBX 7 17 1 0
BITMAP
42
EE
7C
18
00
00
00
7C
FC
FC
E0
78
3C
0E
7E
FE
7C
ENDCHAR
STARTCHAR 0162
ENCODING 354
SWIDTH 567 0
DWIDTH 13 0
BBX 11 26 1 -9
BITMAP
FFE0
FFE0
FFE0
0E00
0E00
0E00
0E00
0E00
0E00
0E00
0E00
0E00
0E00
0E00
0E00
0E00
0E00
0000
0000
0400
0E00
0E00
0200
0600
0400
0800
ENDCHAR
STARTCHAR 0163
ENCODING 355
SWIDTH 349 0
DWIDTH 8 0
BBX 7 22 1 -9
BITMAP
70
70
70
FC
FC
FC
70
70
70
70
3C
3E
3C
00
00
08
3C
1C
04
0C
08
10
ENDCHAR
STARTCHAR 0164
ENCODING 356
SWIDTH 567 0
DWIDTH 13 0
BBX 11 22 1 1
BITMAP
3380
1F00
0E00
0000
0000
FFE0
FFE0
FFE0
0E00
0E00
0E00
0E00
0E00
0E00
0E00
0E00
0E00
0E00
0E00
0E00
0E00
0E00
ENDCHAR
STARTCHAR 0165
ENCODING 357
SWIDTH 349 0
DWIDTH 8 0
BBX 11 17 1 0
BITMAP
00C0
01E0
0060
0020
7040
70C0
7000
FC00
FC00
FC00
7000
7000
7000
7000
3C00
3E00
3C00
ENDCHAR
STARTCHAR 0166
ENCODING 358
SWIDTH 567 0
DWIDTH 13 0
BBX 11 17 1 0
BITMAP
FFE0
FFE0
FFE0
0E00
0E00
0E00
0E00
0E00
0E00
7FC0
0E00
0E00
0E00
0E00
0E00
0E00
0E00
ENDCHAR
STARTCHAR 0167
ENCODING 359
SWIDTH 349 0
DWIDTH 8 0
BBX 7 13 1 0
BITMAP
70
70
70
FC
FC
FC
70
FC
70
70
3C
3E
3C
ENDCHAR
STARTCHAR 0168
ENCODING 360
SWIDTH 698 0
DWIDTH 16 0
BBX 13 23 2 0
BITMAP
0C80
1FC0
1F80
1380
0000
0000
E038
E038
E038
E038
E038
E038
E038
E038
E038
E038
E038
E030
E030
7070
7FE0
3FC0
0F80
ENDCHAR
STARTCHAR 0169
ENCODING 361
SWIDTH 480 0
DWIDTH 11 0
BBX 9 17 1 0
BITMAP
3900
3F00
7F00
2400
0000
0000
0000
E380
E380
E380
E380
E380
E380
E380
FF80
7F80
3D80
ENDCHAR
STARTCHAR 016A
ENCODING 362
SWIDTH 698 0
DWIDTH 16 0
BBX 13 22 2 0
BITMAP
1FC0
1FC0
0000
0000
0000
E038
E038
E038
E038
E038
E038
E038
E038
E038
E038
E038
E030
E030
7070
7FE0
3FC0
0F80
ENDCHAR
STARTCHAR 016B
ENCODING 363
SWIDTH 480 0
DWIDTH 11 0
BBX 9 16 1 0
BITMAP
7F00
7F00
0000
0000
0000
0000
E380
E380
E380
E380
E380
E380
E380
FF80
7F80
3D80
ENDCHAR
STARTCHAR 016C
ENCODING 364
SWIDTH 698 0
DWIDTH 16 0
BBX 13 23 2 0
BITMAP
1080
1980
0F80
0700
0000
0000
E038
E038
E038
E038
E038
E038
E038
E038
E038
E038
E038
E030
E030
7070
7FE0
3FC0
0F80
ENDCHAR
STARTCHAR 016D
ENCODING 365
SWIDTH 480 0
DWIDTH 11 0
BBX 9 17 1 0
BITMAP
2100
3300
3E00
1C00
0000
0000
0000
E380
E380
E380
E380
E380
E380
E380
FF80
7F80
3D80
ENDCHAR
STARTCHAR 016E
ENCODING 366
SWIDTH 698 0
DWIDTH 16 0
BBX 13 24 2 0
BITMAP
0700
0F80
0980
0980
0F80
0700
0000
E038
E038
E038
E038
E038
E038
E038
E038
E038
E038
E038
E030
E030
7070
7FE0
3FC0
0F80
ENDCHAR
STARTCHAR 016F
ENCODING 367
SWIDTH 480 0
DWIDTH 11 0
BBX 9 17 1 0
BITMAP
1C00
3E00
2200
3E00
1C00
0000
0000
E380
E380
E380
E380
E380
E380
E380
FF80
7F80
3D80
ENDCHAR
STARTCHAR 0170
ENCODING 368
SWIDTH 698 0
DWIDTH 16 0
BBX 13 23 2 0
BITMAP
0EE0
0EC0
0CC0
0980
0000
0000
E038
E038
E038
E038
E038
E038
E038
E038
E038
E038
E038
E030
E030
7070
7FE0
3FC0
0F80
ENDCHAR
STARTCHAR 0171
ENCODING 369
SWIDTH 480 0
DWIDTH 11 0
BBX 9 17 1 0
BITMAP
1D80
1980
3B00
3300
0000
0000
0000
E380
E380
E380
E380
E380
E380
E380
FF80
7F80
3D80
ENDCHAR
STARTCHAR 0172
ENCODING 370
SWIDTH 698 0
DWIDTH 16 0
BBX 13 23 2 -6
BITMAP
E038
E038
E038
E038
E038
E038
E038
E038
E038
E038
E038
E030
E070
70F0
7FE0
3FE0
1F80
0600
0C00
0C00
0C00
0780
0300
ENDCHAR
STARTCHAR 0173
ENCODING 371
SWIDTH 480 0
DWIDTH 11 0
BBX 10 15 1 -5
BITMAP
E380
E380
E380
E380
E380
E380
E380
FF80
7F80
3D80
0300
0600
0600
07C0
03C0
ENDCHAR
STARTCHAR 0174
ENCODING 372
SWIDTH 916 0
DWIDTH 21 0
BBX 19 22 1 0
BITMAP
00C000
01F000
03B800
021000
000000
E040E0
E0C0E0
E0E1C0
E1E1C0
71F1C0
71F1C0
73B380
33BB80
3B3B80
3F1B80
3F1F00
1E1F00
1E0F00
1C0E00
1C0600
0C0600
080600
ENDCHAR
STARTCHAR 0175
ENCODING 373
SWIDTH 610 0
DWIDTH 14 0
BBX 14 17 0 0
BITMAP
0300
0780
0FC0
0CC0
0000
0000
0000
E31C
6318
7798
77B8
3FF0
3CF0
3CF0
1870
1860
1020
ENDCHAR
STARTCHAR 0176
ENCODING 374
SWIDTH 567 0
DWIDTH 13 0
BBX 13 23 0 0
BITMAP
0200
0700
0F80
19C0
0000
0000
E038
F070
70F0
38E0
39C0
1FC0
0F80
0F00
0700
0700
0700
0700
0700
0700
0700
0700
0700
ENDCHAR
STARTCHAR 0177
ENCODING 375
SWIDTH 480 0
DWIDTH 11 0
BBX 10 24 0 -7
BITMAP
0C00
1E00
3F80
3100
0000
0000
0000
E0C0
71C0
71C0
7380
3B80
3F00
1F00
1E00
0E00
0E00
1C00
1C00
3800
3800
7000
7000
7000
ENDCHAR
STARTCHAR 0178
ENCODING 376
SWIDTH 567 0
DWIDTH 13 0
BBX 13 22 0 0
BITMAP
1040
38C0
38C0
0000
0000
F038
7078
7870
38E0
1DE0
1DC0
0FC0
0780
0700
0700
0700
0700
0700
0700
0700
0700
0700
ENDCHAR
STARTCHAR 0179
ENCODING 377
SWIDTH 567 0
DWIDTH 13 0
BBX 11 22 1 1
BITMAP
0700
1F00
1C00
0000
0000
7FE0
7FE0
7FC0
01C0
0380
0380
0700
0700
0E00
0E00
1E00
3C00
3C00
7800
7FE0
FFE0
FFE0
ENDCHAR
STARTCHAR 017A
ENCODING 378
SWIDTH 392 0
DWIDTH 9 0
BBX 7 17 1 0
BITMAP
08
1C
78
60
00
00
00
FE
FE
FC
1C
38
38
70
7E
FE
FE
ENDCHAR
STARTCHAR 017B
ENCODING 379
SWIDTH 567 0
DWIDTH 13 0
BBX 11 23 1 0
BITMAP
0400
0E00
0E00
0400
0000
0000
7FE0
7FE0
7FC0
03C0
0780
0780
0700
0F00
0E00
1E00
1C00
3C00
3800
7800
7FE0
FFE0
FFE0
ENDCHAR
STARTCHAR 017C
ENCODING 380
SWIDTH 392 0
DWIDTH 9 0
BBX 7 17 1 0
BITMAP
10
38
38
10
00
00
00
FE
FC
FC
18
38
30
70
7E
FE
FE
ENDCHAR
STARTCHAR 017D
ENCODING 381
SWIDTH 567 0
DWIDTH 13 0
BBX 11 23 1 0
BITMAP
0080
19C0
0F80
0700
0000
0000
7FE0
7FE0
7FC0
01C0
0380
0380
0700
0700
0E00
0E00
1E00
3C00
3C00
7800
7FE0
FFE0
FFE0
ENDCHAR
STARTCHAR 017E
ENCODING 382
SWIDTH 392 0
DWIDTH 9 0
BBX 7 17 1 0
BITMAP
46
7E
3C
18
00
00
00
FE
FE
FC
1C
38
38
70
7E
FE
FE
ENDCHAR
STARTCHAR 0192
ENCODING 402
SWIDTH 436 0
DWIDTH 10 0
BBX 11 24 -1 -7
BITMAP
03E0
07E0
07E0
0600
0E00
0E00
0E00
3FC0
3FC0
3FC0
0E00
0E00
0E00
0E00
0E00
0E00
0E00
0E00
0E00
0E00
0E00
7E00
FC00
7800
ENDCHAR
STARTCHAR 01FA
ENCODING 506
SWIDTH 654 0
DWIDTH 15 0
BBX 15 25 0 1
BITMAP
00C0
03C0
0700
0380
07C0
04C0
0440
04C0
0780
0380
0380
0780
07C0
0FC0
0EE0
0EE0
1CF0
1C70
3870
3FF8
7FF8
7FFC
701C
E01E
E00E
ENDCHAR
STARTCHAR 01FB
ENCODING 507
SWIDTH 436 0
DWIDTH 10 0
BBX 8 20 1 0
BITMAP
0C
1E
78
20
1C
3E
26
26
3E
1C
7C
7E
7F
3F
7F
E7
E7
FF
FF
7B
ENDCHAR
STARTCHAR 01FC
ENCODING 508
SWIDTH 872 0
DWIDTH 20 0
BBX 20 23 -1 0
BITMAP
000080
0001C0
000780
000600
000000
000000
003FF0
007FF0
007FF0
00F800
01F800
01F800
03F800
03BFE0
073FE0
073FE0
0E3800
1FF800
1FF800
3FF800
383FF0
703FF0
F03FF0
ENDCHAR
STARTCHAR 01FD
ENCODING 509
SWIDTH 698 0
DWIDTH 16 0
BBX 14 17 1 0
BITMAP
0040
01C0
07C0
0600
0000
0000
0000
7CF0
7FF8
7FFC
3FFC
7FFC
E700
E700
FFF8
FDF8
78F0
ENDCHAR
STARTCHAR 01FE
ENCODING 510
SWIDTH 785 0
DWIDTH 18 0
BBX 16 23 1 0
BITMAP
0040
00E0
03C0
0300
0000
0000
07E1
0FFA
3FFC
381E
701E
6037
E067
E0C7
E187
E307
E607
EC06
780E
781C
3FFC
5FF0
87C0
ENDCHAR
STARTCHAR 01FF
ENCODING 511
SWIDTH 480 0
DWIDTH 11 0
BBX 9 17 1 0
BITMAP
0400
0E00
3C00
3000
0000
0000
0000
1E80
7F80
7F80
E780
ED80
F980
F380
7F80
7F00
FE00
ENDCHAR
STARTCHAR 0218
ENCODING 536
SWIDTH 523 0
DWIDTH 12 0
BBX 10 26 1 -9
BITMAP
3E00
7F80
FF80
E180
E000
E000
F000
7C00
3F00
0F80
03C0
01C0
01C0
C1C0
FF80
FF80
3E00
0000
0000
0C00
1E00
0E00
0200
0600
0400
0800
ENDCHAR
STARTCHAR 0219
ENCODING 537
SWIDTH 349 0
DWIDTH 8 0
BBX 6 19 1 -9
BITMAP
7C
FC
FC
E0
78
3C
0C
FC
FC
78
00
00
10
38
38
08
18
10
20
ENDCHAR
STARTCHAR 021A
ENCODING 538
SWIDTH 567 0
DWIDTH 13 0
BBX 11 26 1 -9
BITMAP
FFE0
FFE0
FFE0
0E00
0E00
0E00
0E00
0E00
0E00
0E00
0E00
0E00
0E00
0E00
0E00
0E00
0E00
0000
0000
0400
0E00
0E00
0200
0600
0400
0800
ENDCHAR
STARTCHAR 021B
ENCODING 539
SWIDTH 349 0
DWIDTH 8 0
BBX 7 22 1 -9
BITMAP
70
70
70
FC
FC
FC
70
70
70
70
3C
3E
3C
00
00
08
3C
1C
04
0C
08
10
ENDCHAR
STARTCHAR 0237
ENCODING 567
SWIDTH 218 0
DWIDTH 5 0
BBX 7 17 -3 -7
BITMAP
0E
0E
0E
0E
0E
0E
0E
0E
0E
0E
0E
0E
0C
0C
FC
FC
70
ENDCHAR
STARTCHAR 02C6
ENCODING 710
SWIDTH 392 0
DWIDTH 9 0
BBX 6 4 1 13
BITMAP
10
78
FC
CC
ENDCHAR
STARTCHAR 02C7
ENCODING 711
SWIDTH 392 0
DWIDTH 9 0
BBX 7 4 1 13
BITMAP
84
EE
7C
30
ENDCHAR
STARTCHAR 02C9
ENCODING 713
SWIDTH 392 0
DWIDTH 9 0
BBX 7 2 1 14
BITMAP
FE
FE
ENDCHAR
STARTCHAR 02D8
ENCODING 728
SWIDTH 349 0
DWIDTH 8 0
BBX 6 4 1 13
BITMAP
84
CC
FC
78
ENDCHAR
STARTCHAR 02D9
ENCODING 729
SWIDTH 218 0
DWIDTH 5 0
BBX 3 4 1 13
BITMAP
40
E0
E0
40
ENDCHAR
STARTCHAR 02DA
ENCODING 730
SWIDTH 305 0
DWIDTH 7 0
BBX 5 6 1 12
BITMAP
70
F8
88
88
F8
70
ENDCHAR
STARTCHAR 02DB
ENCODING 731
SWIDTH 305 0
DWIDTH 7 0
BBX 5 6 1 -6
BITMAP
60
C0
C0
C0
F8
78
ENDCHAR
STARTCHAR 02DC
ENCODING 732
SWIDTH 392 0
DWIDTH 9 0
BBX 7 4 1 13
BITMAP
20
7E
FC
9C
ENDCHAR
STARTCHAR 02DD
ENCODING 733
SWIDTH 392 0
DWIDTH 9 0
BBX 7 4 1 13
BITMAP
66
EE
CC
C8
ENDCHAR
STARTCHAR 0394
ENCODING 916
SWIDTH 698 0
DWIDTH 16 0
BBX 15 16 1 0
BITMAP
0300
0300
0380
0780
07C0
0FC0
0FC0
1CE0
1CE0
3870
3870
7038
7038
FFFC
FFFC
FFFE
ENDCHAR
STARTCHAR 03A9
ENCODING 937
SWIDTH 785 0
DWIDTH 18 0
BBX 16 16 1 0
BITMAP
07E0
1FF8
3FFC
7C3E
700E
F00F
E007
E007
E007
E007
E00F
700E
381C
FC3F
FE7F
FE7F
ENDCHAR
STARTCHAR 03BC
ENCODING 956
SWIDTH 523 0
DWIDTH 12 0
BBX 9 16 1 -7
BITMAP
E380
E380
E380
E380
E380
E380
FF80
FF80
FD80
E000
E000
E000
E000
E000
E000
E000
ENDCHAR
STARTCHAR 03C0
ENCODING 960
SWIDTH 698 0
DWIDTH 16 0
BBX 14 9 1 0
BITMAP
FFFC
FFFC
3870
3870
3870
3870
3870
3870
3870
ENDCHAR
STARTCHAR 1E80
ENCODING 7808
SWIDTH 916 0
DWIDTH 21 0
BBX 19 23 1 0
BITMAP
010000
01C000
01E000
007000
000000
000000
E040E0
E0C0E0
E0E1C0
E1E1C0
71F1C0
71F1C0
73B380
33BB80
3B3B80
3F1B80
3F1F00
1E1F00
1E0F00
1C0E00
1C0600
0C0600
080600
ENDCHAR
STARTCHAR 1E81
ENCODING 7809
SWIDTH 610 0
DWIDTH 14 0
BBX 14 17 0 0
BITMAP
0400
0700
0780
0180
0000
0000
0000
E31C
6318
7798
77B8
3FF0
3CF0
3CF0
1870
1860
1020
ENDCHAR
STARTCHAR 1E82
ENCODING 7810
SWIDTH 916 0
DWIDTH 21 0
BBX 19 23 1 0
BITMAP
002000
007000
01E000
018000
000000
000000
E040E0
E0C0E0
E0E1C0
E1E1C0
71F1C0
71F1C0
73B380
33BB80
3B3B80
3F1B80
3F1F00
1E1F00
1E0F00
1C0E00
1C0600
0C0600
080600
ENDCHAR
STARTCHAR 1E83
ENCODING 7811
SWIDTH 610 0
DWIDTH 14 0
BBX 14 17 0 0
BITMAP
0080
03C0
0780
0600
0000
0000
0000
E31C
6318
7798
77B8
3FF0
3CF0
3CF0
1870
1860
1020
ENDCHAR
STARTCHAR 1E84
ENCODING 7812
SWIDTH 916 0
DWIDTH 21 0
BBX 19 22 1 0
BITMAP
061800
061800
020800
000000
000000
E040E0
E0C0E0
E0E1C0
E1E1C0
71E1C0
71F1C0
73B380
33BB80
3B3B80
3F1B00
3F1F00
1E1F00
1E0F00
1C0E00
1C0600
0C0600
080600
ENDCHAR
STARTCHAR 1E85
ENCODING 7813
SWIDTH 610 0
DWIDTH 14 0
BBX 14 17 0 0
BITMAP
18C0
18C0
0840
0000
0000
0000
0000
E21C
E318
6738
6FB8
7FF0
3DF0
38F0
3860
3060
1020
ENDCHAR
STARTCHAR 1EF2
ENCODING 7922
SWIDTH 567 0
DWIDTH 13 0
BBX 13 23 0 0
BITMAP
0400
0E00
0780
0180
0000
0000
E038
F070
70F0
38E0
39C0
1FC0
0F80
0F00
0700
0700
0700
0700
0700
0700
0700
0700
0700
ENDCHAR
STARTCHAR 1EF3
ENCODING 7923
SWIDTH 480 0
DWIDTH 11 0
BBX 10 24 0 -7
BITMAP
1000
1C00
0F00
0300
0000
0000
0000
E0C0
71C0
71C0
7380
3B80
3F00
1F00
1E00
0E00
0E00
1C00
1C00
3800
3800
7000
7000
7000
ENDCHAR
STARTCHAR 2013
ENCODING 8211
SWIDTH 523 0
DWIDTH 12 0
BBX 10 2 1 5
BITMAP
FFC0
FFC0
ENDCHAR
STARTCHAR 2014
ENCODING 8212
SWIDTH 741 0
DWIDTH 17 0
BBX 15 2 1 5
BITMAP
FFFE
FFFE
ENDCHAR
STARTCHAR 2018
ENCODING 8216
SWIDTH 261 0
DWIDTH 6 0
BBX 4 7 1 10
BITMAP
20
60
C0
C0
F0
F0
70
ENDCHAR
STARTCHAR 2019
ENCODING 8217
SWIDTH 174 0
DWIDTH 4 0
BBX 3 6 1 10
BITMAP
C0
E0
60
20
40
C0
ENDCHAR
STARTCHAR 201A
ENCODING 8218
SWIDTH 218 0
DWIDTH 5 0
BBX 3 7 1 -4
BITMAP
C0
E0
E0
20
60
40
80
ENDCHAR
STARTCHAR 201C
ENCODING 8220
SWIDTH 392 0
DWIDTH 9 0
BBX 8 6 1 11
BITMAP
66
CC
88
CC
EF
EE
ENDCHAR
STARTCHAR 201D
ENCODING 8221
SWIDTH 392 0
DWIDTH 9 0
BBX 8 6 1 10
BITMAP
CE
EF
67
21
42
C6
ENDCHAR
STARTCHAR 201E
ENCODING 8222
SWIDTH 436 0
DWIDTH 10 0
BBX 8 7 1 -4
BITMAP
C6
EF
E7
21
63
42
84
ENDCHAR
STARTCHAR 2020
ENCODING 8224
SWIDTH 610 0
DWIDTH 14 0
BBX 12 24 1 -7
BITMAP
0E00
0E00
0E00
0E00
0E00
0E00
0E00
FFF0
FFF0
FFF0
0E00
0E00
0E00
0E00
0E00
0E00
0E00
0E00
0E00
0E00
0E00
0E00
0E00
0E00
ENDCHAR
STARTCHAR 2021
ENCODING 8225
SWIDTH 610 0
DWIDTH 14 0
BBX 12 24 1 -7
BITMAP
0E00
0E00
0E00
0E00
FFF0
FFF0
FFF0
0E00
0E00
0E00
0E00
0E00
0E00
0E00
FFE0
FFE0
FFE0
0600
0600
0600
0600
0600
0600
0600
ENDCHAR
STARTCHAR 2022
ENCODING 8226
SWIDTH 349 0
DWIDTH 8 0
BBX 6 6 1 2
BITMAP
78
FC
FC
FC
FC
78
ENDCHAR
STARTCHAR 2026
ENCODING 8230
SWIDTH 654 0
DWIDTH 15 0
BBX 13 3 1 0
BITMAP
E738
E738
E738
ENDCHAR
STARTCHAR 2030
ENCODING 8240
SWIDTH 1003 0
DWIDTH 23 0
BBX 21 17 1 0
BITMAP
783000
FC6000
FC6000
FCC000
FCC000
798000
018000
030000
030000
060000
0670E0
0CF9F0
0CDFB8
19DFB8
18FFF8
30F9F0
3070E0
ENDCHAR
STARTCHAR 2039
ENCODING 8249
SWIDTH 261 0
DWIDTH 6 0
BBX 4 8 1 1
BITMAP
30
70
E0
E0
E0
E0
70
30
ENDCHAR
STARTCHAR 203A
ENCODING 8250
SWIDTH 261 0
DWIDTH 6 0
BBX 4 8 1 1
BITMAP
C0
E0
70
70
70
70
E0
C0
ENDCHAR
STARTCHAR 2044
ENCODING 8260
SWIDTH 130 0
DWIDTH 3 0
BBX 10 17 -3 0
BITMAP
01C0
0180
0380
0300
0300
0600
0600
0C00
0C00
1800
1800
3000
3000
6000
6000
C000
C000
ENDCHAR
STARTCHAR 2070
ENCODING 8304
SWIDTH 349 0
DWIDTH 8 0
BBX 6 6 1 12
BITMAP
78
FC
CC
CC
FC
78
ENDCHAR
STARTCHAR 2074
ENCODING 8308
SWIDTH 349 0
DWIDTH 8 0
BBX 6 6 1 12
BITMAP
18
38
58
FC
FC
18
ENDCHAR
STARTCHAR 2075
ENCODING 8309
SWIDTH 305 0
DWIDTH 7 0
BBX 5 6 1 12
BITMAP
F0
F0
F8
18
F8
F0
ENDCHAR
STARTCHAR 2076
ENCODING 8310
SWIDTH 349 0
DWIDTH 8 0
BBX 6 7 1 12
BITMAP
18
70
50
7C
CC
7C
38
ENDCHAR
STARTCHAR 2077
ENCODING 8311
SWIDTH 305 0
DWIDTH 7 0
BBX 5 6 1 12
BITMAP
F8
F0
30
60
60
C0
ENDCHAR
STARTCHAR 2078
ENCODING 8312
SWIDTH 305 0
DWIDTH 7 0
BBX 5 6 1 12
BITMAP
F8
F8
70
D8
F8
70
ENDCHAR
STARTCHAR 2079
ENCODING 8313
SWIDTH 349 0
DWIDTH 8 0
BBX 5 8 1 10
BITMAP
70
F8
C8
F8
78
18
70
40
ENDCHAR
STARTCHAR 2080
ENCODING 8320
SWIDTH 349 0
DWIDTH 8 0
BBX 6 6 1 -3
BITMAP
78
FC
CC
CC
FC
78
ENDCHAR
STARTCHAR 2081
ENCODING 8321
SWIDTH 261 0
DWIDTH 6 0
BBX 3 6 2 -3
BITMAP
60
E0
60
60
60
60
ENDCHAR
STARTCHAR 2082
ENCODING 8322
SWIDTH 305 0
DWIDTH 7 0
BBX 5 6 1 -3
BITMAP
70
F8
18
30
78
F8
ENDCHAR
STARTCHAR 2083
ENCODING 8323
SWIDTH 305 0
DWIDTH 7 0
BBX 5 6 1 -3
BITMAP
70
F8
70
18
F8
F0
ENDCHAR
STARTCHAR 2084
ENCODING 8324
SWIDTH 349 0
DWIDTH 8 0
BBX 6 6 1 -3
BITMAP
18
38
58
FC
FC
18
ENDCHAR
STARTCHAR 2085
ENCODING 8325
SWIDTH 305 0
DWIDTH 7 0
BBX 5 6 1 -3
BITMAP
F0
F0
F8
18
F8
F0
ENDCHAR
STARTCHAR 2086
ENCODING 8326
SWIDTH 349 0
DWIDTH 8 0
BBX 6 7 1 -3
BITMAP
18
70
50
7C
CC
7C
38
ENDCHAR
STARTCHAR 2087
ENCODING 8327
SWIDTH 305 0
DWIDTH 7 0
BBX 5 6 1 -3
BITMAP
F8
F0
30
60
60
C0
ENDCHAR
STARTCHAR 2088
ENCODING 8328
SWIDTH 305 0
DWIDTH 7 0
BBX 5 6 1 -3
BITMAP
F8
F8
70
D8
F8
70
ENDCHAR
STARTCHAR 2089
ENCODING 8329
SWIDTH 349 0
DWIDTH 8 0
BBX 5 8 1 -5
BITMAP
70
F8
C8
F8
78
18
70
40
ENDCHAR
STARTCHAR 20AC
ENCODING 8364
SWIDTH 741 0
DWIDTH 17 0
BBX 15 17 1 0
BITMAP
03F0
0FFC
1FFE
1C0C
3800
3800
7000
FFC0
7000
FF80
7800
3800
3C00
1E0C
1FFE
07FC
03F0
ENDCHAR
STARTCHAR 2113
ENCODING 8467
SWIDTH 523 0
DWIDTH 12 0
BBX 9 16 1 0
BITMAP
0700
0F80
1980
1180
1180
3180
2300
2200
2C00
7800
E000
6000
6000
6100
7F00
3E00
ENDCHAR
STARTCHAR 2122
ENCODING 8482
SWIDTH 741 0
DWIDTH 17 0
BBX 15 7 1 9
BITMAP
FC8C
F98C
31DC
31DC
31F4
3176
3126
ENDCHAR
STARTCHAR 2126
ENCODING 8486
SWIDTH 785 0
DWIDTH 18 0
BBX 16 16 1 0
BITMAP
07E0
1FF8
3FFC
7C3E
780E
F00F
E007
E007
E007
E007
E00F
700E
381C
FC3F
FE7F
FE7F
ENDCHAR
STARTCHAR 212E
ENCODING 8494
SWIDTH 829 0
DWIDTH 19 0
BBX 17 17 0 0
BITMAP
008000
0FF000
1C1C00
300600
600300
600300
E00300
E00380
E00380
FFFF80
E00000
600000
600000
200400
380C00
0FF800
03E000
ENDCHAR
STARTCHAR 2153
ENCODING 8531
SWIDTH 698 0
DWIDTH 16 0
BBX 13 17 2 0
BITMAP
60E0
E0C0
61C0
6180
6380
6300
6700
0600
0600
0C20
0CF8
1818
1818
3070
3018
60F8
6070
ENDCHAR
STARTCHAR 2154
ENCODING 8532
SWIDTH 741 0
DWIDTH 17 0
BBX 15 17 1 0
BITMAP
7038
F830
1870
1060
30E0
78C0
F9C0
0180
0180
0308
033E
0606
0606
0C1C
0C06
183E
181C
ENDCHAR
STARTCHAR 215B
ENCODING 8539
SWIDTH 741 0
DWIDTH 17 0
BBX 14 17 2 0
BITMAP
60E0
E0C0
61C0
6180
6380
6300
6700
0600
0600
0C70
0CFC
18EC
1878
3078
30EC
60FC
6078
ENDCHAR
STARTCHAR 215C
ENCODING 8540
SWIDTH 698 0
DWIDTH 16 0
BBX 15 17 0 0
BITMAP
7038
F830
1870
7060
18E0
F8C0
71C0
0180
0180
0338
037E
0676
063C
0C3C
0C76
187E
183C
ENDCHAR
STARTCHAR 215D
ENCODING 8541
SWIDTH 698 0
DWIDTH 16 0
BBX 14 17 1 0
BITMAP
F070
F060
F0E0
F8C0
19C0
F980
F180
0300
0300
0638
067C
0C7C
0C3C
1838
187C
307C
3038
ENDCHAR
STARTCHAR 215E
ENCODING 8542
SWIDTH 698 0
DWIDTH 16 0
BBX 14 17 1 0
BITMAP
F870
F860
30E0
30C0
61C0
6180
C380
0300
0300
0670
06FC
0CEC
0C78
1878
18EC
30FC
3078
ENDCHAR
STARTCHAR 2202
ENCODING 8706
SWIDTH 567 0
DWIDTH 13 0
BBX 11 16 1 0
BITMAP
1800
3C00
1F00
0780
0380
01C0
1EC0
3FE0
71E0
60E0
E0E0
E0E0
71E0
7FC0
3F80
1F00
ENDCHAR
STARTCHAR 2206
ENCODING 8710
SWIDTH 698 0
DWIDTH 16 0
BBX 15 16 1 0
BITMAP
0300
0300
0780
0780
0FC0
0FC0
0EE0
1CE0
1CE0
3870
3870
7038
7038
FFFC
FFFC
FFFE
ENDCHAR
STARTCHAR 220F
ENCODING 8719
SWIDTH 698 0
DWIDTH 16 0
BBX 13 16 1 0
BITMAP
FFF8
FFF8
FFF8
E038
E038
E038
E038
E038
E038
E038
E038
E038
E038
E038
E038
E038
ENDCHAR
STARTCHAR 2211
ENCODING 8721
SWIDTH 567 0
DWIDTH 13 0
BBX 10 16 1 0
BITMAP
FFC0
FFC0
7FC0
3C00
1E00
0F00
0780
0380
0380
0700
0F00
1E00
3C00
7FC0
FFC0
FFC0
ENDCHAR
STARTCHAR 2212
ENCODING 8722
SWIDTH 523 0
DWIDTH 12 0
BBX 10 2 1 7
BITMAP
FFC0
FFC0
ENDCHAR
STARTCHAR 2215
ENCODING 8725
SWIDTH 130 0
DWIDTH 3 0
BBX 10 16 -3 0
BITMAP
01C0
0180
0380
0300
0700
0600
0C00
0C00
1800
1800
3000
3000
6000
6000
C000
C000
ENDCHAR
STARTCHAR 2219
ENCODING 8729
SWIDTH 392 0
DWIDTH 9 0
BBX 4 4 2 4
BITMAP
60
F0
F0
70
ENDCHAR
STARTCHAR 221A
ENCODING 8730
SWIDTH 698 0
DWIDTH 16 0
BBX 15 16 1 0
BITMAP
007E
007E
00E0
00E0
00E0
01C0
01C0
E380
7380
7700
3F00
3E00
1E00
1C00
0C00
0800
ENDCHAR
STARTCHAR 221E
ENCODING 8734
SWIDTH 610 0
DWIDTH 14 0
BBX 11 6 1 4
BITMAP
39C0
FFE0
C660
C660
FFE0
79C0
ENDCHAR
STARTCHAR 222B
ENCODING 8747
SWIDTH 392 0
DWIDTH 9 0
BBX 11 23 -1 -7
BITMAP
03C0
07E0
0FC0
0E00
0E00
0E00
0E00
0E00
0E00
0E00
0E00
0E00
0E00
0E00
0E00
0E00
0E00
0E00
0E00
0E00
FE00
FC00
F800
ENDCHAR
STARTCHAR 2248
ENCODING 8776
SWIDTH 480 0
DWIDTH 11 0
BBX 8 8 1 2
BITMAP
79
FF
4E
00
20
79
FF
4E
ENDCHAR
STARTCHAR 2260
ENCODING 8800
SWIDTH 480 0
DWIDTH 11 0
BBX 8 11 1 1
BITMAP
02
06
FF
FF
08
08
18
FF
FF
20
60
ENDCHAR
STARTCHAR 2264
ENCODING 8804
SWIDTH 436 0
DWIDTH 10 0
BBX 10 13 0 1
BITMAP
00C0
03C0
0F80
3E00
F800
7C00
1F00
07C0
01C0
0000
0000
FFC0
FFC0
ENDCHAR
STARTCHAR 2265
ENCODING 8805
SWIDTH 436 0
DWIDTH 10 0
BBX 10 13 0 1
BITMAP
C000
F000
7C00
1F00
07C0
0F80
3E00
F800
E000
0000
0000
FFC0
FFC0
ENDCHAR
STARTCHAR 25CA
ENCODING 9674
SWIDTH 698 0
DWIDTH 16 0
BBX 12 16 2 0
BITMAP
0600
0F00
0F80
1F80
39C0
78E0
F0F0
E070
E070
70E0
79E0
3DC0
1F80
0F00
0700
0600
ENDCHAR
STARTCHAR F8FF
ENCODING 63743
SWIDTH 610 0
DWIDTH 14 0
BBX 12 16 1 0
BITMAP
FFF0
FFF0
F8F0
E070
FE70
FE70
FCF0
F9F0
F9F0
FFF0
FFF0
F9F0
F9F0
FFF0
FFF0
FFF0
ENDCHAR
STARTCHAR FB01
ENCODING 64257
SWIDTH 567 0
DWIDTH 13 0
BBX 11 17 1 0
BITMAP
1F00
3F80
7F00
7000
7000
7000
7000
FFE0
FFE0
FFE0
70E0
70E0
70E0
70E0
70E0
70E0
70E0
ENDCHAR
STARTCHAR FB02
ENCODING 64258
SWIDTH 567 0
DWIDTH 13 0
BBX 11 17 1 0
BITMAP
0F60
3FE0
3FE0
30E0
70E0
70E0
70E0
FCE0
FCE0
FCE0
70E0
70E0
70E0
70E0
70E0
70E0
70E0
ENDCHAR
ENDFONT
